<svg xmlns="http://www.w3.org/2000/svg" viewBox="0 0 18.42 18.41"><defs><style>.cls-1{fill:#727272;}</style></defs><g id="레이어_2" data-name="레이어 2"><g id="레이어_1-2" data-name="레이어 1"><path class="cls-1" d="M9.21,4.48A4.72,4.72,0,1,0,13.94,9.2,4.72,4.72,0,0,0,9.21,4.48Zm0,7.79A3.07,3.07,0,1,1,12.28,9.2a3.07,3.07,0,0,1-3.07,3.07Zm6-8a1.1,1.1,0,1,1-1.1-1.1A1.1,1.1,0,0,1,15.23,4.29Zm3.13,1.12a5.46,5.46,0,0,0-1.49-3.86A5.55,5.55,0,0,0,13,.06C11.49,0,6.93,0,5.41.06A5.47,5.47,0,0,0,1.55,1.55,5.48,5.48,0,0,0,.06,5.41C0,6.92,0,11.48.06,13a5.46,5.46,0,0,0,1.49,3.86,5.51,5.51,0,0,0,3.86,1.48c1.52.09,6.08.09,7.6,0a5.41,5.41,0,0,0,3.86-1.48A5.5,5.5,0,0,0,18.36,13c.08-1.52.08-6.07,0-7.59Zm-2,9.22a3.08,3.08,0,0,1-1.75,1.75c-1.21.48-4.09.37-5.43.37s-4.22.11-5.43-.37A3.13,3.13,0,0,1,2,14.63c-.48-1.21-.37-4.09-.37-5.43S1.56,5,2,3.78A3.08,3.08,0,0,1,3.78,2C5,1.55,7.87,1.66,9.21,1.66s4.22-.11,5.43.37a3.08,3.08,0,0,1,1.75,1.75c.48,1.21.37,4.09.37,5.42S16.87,13.42,16.39,14.63Z"/></g></g></svg>