<svg xmlns="http://www.w3.org/2000/svg" viewBox="0 0 17.84 18.41"><defs><style>.cls-1{fill:#d0ceca;}</style></defs><g id="레이어_2" data-name="레이어 2"><g id="레이어_1-2" data-name="레이어 1"><path class="cls-1" d="M17.84,9.2a9.06,9.06,0,0,1-8.92,9.21A8.84,8.84,0,0,1,6.28,18a10.67,10.67,0,0,0,1.11-2.41l.55-2.19a2.36,2.36,0,0,0,2,1c2.69,0,4.63-2.55,4.63-5.72a5.31,5.31,0,0,0-5.5-5.32A5.49,5.49,0,0,0,3.22,9,4.19,4.19,0,0,0,5,12.55c.17.08.26,0,.3-.12s.18-.76.24-1a.24.24,0,0,0-.06-.26A3.71,3.71,0,0,1,4.86,9a3.91,3.91,0,0,1,4-4,3.58,3.58,0,0,1,3.73,3.74c0,2.49-1.22,4.22-2.81,4.22a1.33,1.33,0,0,1-1.32-1.67,18,18,0,0,0,.74-3.06A1.15,1.15,0,0,0,8.09,7c-.89,0-1.61,1-1.61,2.24a3.46,3.46,0,0,0,.26,1.36s-.88,3.86-1,4.58a9,9,0,0,0,0,2.64A9.2,9.2,0,0,1,0,9.2,9.06,9.06,0,0,1,8.92,0,9.06,9.06,0,0,1,17.84,9.2Z"/></g></g></svg>