<svg xmlns="http://www.w3.org/2000/svg" viewBox="0 0 20.91 18.41"><defs><style>.cls-1{fill:#727272;}</style></defs><g id="레이어_2" data-name="레이어 2"><g id="레이어_1-2" data-name="레이어 1"><path class="cls-1" d="M18.76,4.59c0,.2,0,.4,0,.6,0,6.14-4.32,13.22-12.2,13.22A11.39,11.39,0,0,1,0,16.32a7.17,7.17,0,0,0,1,.06,8.19,8.19,0,0,0,5.32-2,4.35,4.35,0,0,1-4-3.22,5.31,5.31,0,0,0,.81.07,4.28,4.28,0,0,0,1.13-.16A4.56,4.56,0,0,1,.85,6.53V6.47a4,4,0,0,0,1.94.59A4.74,4.74,0,0,1,.88,3.19,4.92,4.92,0,0,1,1.46.85,11.89,11.89,0,0,0,10.3,5.71a5.37,5.37,0,0,1-.11-1.06A4.48,4.48,0,0,1,14.48,0a4.12,4.12,0,0,1,3.13,1.47A8,8,0,0,0,20.33.35a4.63,4.63,0,0,1-1.88,2.56,8.31,8.31,0,0,0,2.46-.72,9.5,9.5,0,0,1-2.15,2.4Z"/></g></g></svg>