<svg xmlns="http://www.w3.org/2000/svg" viewBox="0 0 23.17 18.41"><defs><style>.cls-1{fill:#727272;}</style></defs><g id="레이어_2" data-name="레이어 2"><g id="레이어_1-2" data-name="레이어 1"><path class="cls-1" d="M22.69,2.88A3.11,3.11,0,0,0,20.64.55C18.83,0,11.58,0,11.58,0s-7.24,0-9,.55a3.15,3.15,0,0,0-2,2.33A39.27,39.27,0,0,0,0,9.23a39.24,39.24,0,0,0,.48,6.34,3.07,3.07,0,0,0,2.05,2.29c1.81.55,9.05.55,9.05.55s7.25,0,9.06-.55a3.09,3.09,0,0,0,2.05-2.29,39.24,39.24,0,0,0,.48-6.34,39.27,39.27,0,0,0-.48-6.35ZM9.21,13.12V5.33l6.06,3.89-6.06,3.9Z"/></g></g></svg>