<svg xmlns="http://www.w3.org/2000/svg" viewBox="0 0 570.15 83.57"><defs><style>.cls-1{fill:none;}.cls-2{fill:#f44b1f;}</style></defs><g id="레이어_2" data-name="레이어 2"><g id="MAIN"><polygon class="cls-1" points="561.19 10.35 561.19 18.67 551.3 18.67 551.3 8.79 559.62 8.79 559.62 5.48 512.63 5.48 10.53 5.48 10.53 8.79 18.85 8.79 18.85 18.67 8.96 18.67 8.96 10.35 5.48 10.35 5.48 34.63 5.48 48.93 5.48 73.21 8.96 73.21 8.96 64.89 18.85 64.89 18.85 74.78 10.53 74.78 10.53 78.08 512.63 78.08 559.62 78.08 559.62 74.78 551.3 74.78 551.3 64.89 561.19 64.89 561.19 73.21 564.66 73.21 564.66 41.78 564.66 10.35 561.19 10.35"/><rect class="cls-1" x="552.87" y="10.35" width="6.76" height="6.76"/><rect class="cls-1" x="552.87" y="66.46" width="6.76" height="6.76"/><rect class="cls-1" x="10.53" y="10.35" width="6.76" height="6.76"/><rect class="cls-1" x="10.53" y="66.46" width="6.76" height="6.76"/><polygon class="cls-2" points="8.96 82 8.96 83.56 512.63 83.56 561.19 83.56 561.19 82 512.63 82 8.96 82"/><polygon class="cls-2" points="570.15 8.79 568.58 8.79 568.58 8.79 568.58 8.79 568.58 41.78 568.58 74.78 568.58 74.78 568.58 74.78 570.15 74.78 570.14 41.78 570.15 8.79"/><path class="cls-2" d="M566.21,8.79h-5V3.92H9V8.79h-5v65.6l0,.39H9v4.87H561.19V74.78h5V9.18ZM10.53,10.35h6.75v6.76H10.53ZM559.62,73.21h-6.75V66.46h6.75Zm5,0h-3.47V64.89H551.3v9.89h8.32v3.3H10.53v-3.3h8.32V64.89H9v8.32H5.48V10.35H9v8.32h9.89V8.79H10.53V5.48H559.62V8.79H551.3v9.88h9.89V10.35h3.47V73.21Zm-554.13,0V66.46h6.75v6.75ZM559.62,10.35v6.76h-6.75V10.35Z"/><polygon class="cls-2" points="561.19 1.57 561.19 0 512.63 0 8.96 0 8.96 1.57 512.63 1.57 561.19 1.57"/><polygon class="cls-2" points="0 34.63 0 48.93 0 74.78 1.57 74.78 1.57 48.93 1.57 34.63 1.57 8.79 0 8.79 0 34.63"/></g></g></svg>