<svg xmlns="http://www.w3.org/2000/svg" viewBox="0 0 149.88 52.93"><defs><style>.cls-1{fill:#989898;}</style></defs><g id="레이어_2" data-name="레이어 2"><g id="레이어_1-2" data-name="레이어 1"><path class="cls-1" d="M10.9,23.8C4.38,23.8,0,28.18,0,34.7S4.38,45.61,10.9,45.61,21.8,41.23,21.8,34.7,17.42,23.8,10.9,23.8Zm0,16.74c-3.3,0-5.53-2.34-5.53-5.84s2.23-5.83,5.53-5.83,5.53,2.34,5.53,5.83S14.21,40.54,10.9,40.54Z"/><polygon class="cls-1" points="33.84 32.28 28.44 24.42 23.56 24.42 23.56 44.99 29.24 44.99 29.14 34.14 33.84 40.65 38.54 34.14 38.44 44.99 44.13 44.99 44.13 24.42 39.25 24.42 33.84 32.28"/><path class="cls-1" d="M54.87,32.48v4.45h2.48v3.33h-.26c-.31,0-.75,0-1.11,0a5.26,5.26,0,0,1-4.72-5.53c0-3.2,2-5.43,4.9-5.52h.31a9.47,9.47,0,0,1,4.4,1V24.72a14.16,14.16,0,0,0-4.09-.61c-6.52,0-10.9,4.26-10.9,10.59s4.38,10.6,10.9,10.6A14.5,14.5,0,0,0,62.42,44V32.48Z"/><path class="cls-1" d="M104.66,17.09a3.53,3.53,0,0,0-1.16-4.44,1,1,0,0,1-.5-1,4.86,4.86,0,0,0-3.89-4.9,5.53,5.53,0,0,1-3.5-1.51,2.16,2.16,0,0,1-.69-1,3.53,3.53,0,0,0-3.76-2.73,1.17,1.17,0,0,1-.9-.31,4.91,4.91,0,0,0-6.37,0,1.42,1.42,0,0,1-1,.32,3.08,3.08,0,0,0-3.21,1.78,7.32,7.32,0,0,1-2.1,2.8c-.37.32-.64.66-1.12.49a5.07,5.07,0,0,0-5.27,5.05,1.14,1.14,0,0,1-.55,1.07,3.52,3.52,0,0,0-1.15,4.37c.17.38.2.58-.14.91a5,5,0,0,0,4.61,8.54.91.91,0,0,1,.75.1,4.12,4.12,0,0,1,0,3.5,6.41,6.41,0,0,1-1.2,1.52,12.64,12.64,0,0,0-1,1.16c-2.67,3.69-4,10-1.14,14.39,2.45,3.81,7.27,5.7,14.74,5.76h1.81c7.46-.06,12.29-2,14.74-5.76,2.83-4.4,1.52-10.7-1.14-14.39a12.72,12.72,0,0,0-1-1.16,7,7,0,0,1-1.2-1.52,4.07,4.07,0,0,1-.06-3.3,1,1,0,0,1,1-.29,5,5,0,0,0,4.55-8.59A.59.59,0,0,1,104.66,17.09Zm-24.79-11a1.27,1.27,0,0,0,.6-.59,2.5,2.5,0,0,0,.1-.72A2.12,2.12,0,0,1,83,3a2.39,2.39,0,0,0,.7.08c.44-.06.75-.44,1.07-.73a3.47,3.47,0,0,1,4.32-.15A3.35,3.35,0,0,0,90.35,3a5.32,5.32,0,0,0,1.19,0,2,2,0,0,1,1.94,1.53,4,4,0,0,0,.27,1.2c.41.67,1.53.7,1.8,1.44a5.6,5.6,0,0,0-2.13,2.19,1.07,1.07,0,0,1-.19.28,1,1,0,0,1-.54.13,3.61,3.61,0,0,0-3.24,3,1.16,1.16,0,0,1-.14.53,1,1,0,0,1-.33.31,3.57,3.57,0,0,1-1.33.61,4.48,4.48,0,0,1-2.44-.5.73.73,0,0,1-.39-.27.91.91,0,0,1-.1-.43,3.65,3.65,0,0,0-3.31-3.23A1,1,0,0,1,81,9.64a.9.9,0,0,1-.31-.38A5.87,5.87,0,0,0,78.6,7.12C78.75,6.59,79.37,6.41,79.87,6.13ZM104.61,23a.61.61,0,0,0,0,.12,3.69,3.69,0,0,1-3.85,1.94,3.57,3.57,0,0,0-1.37-.15,1.61,1.61,0,0,0-.74.44c-1.25,1.17-1.23,3.21-.56,4.78a30.72,30.72,0,0,0,2.81,4.29A12.43,12.43,0,0,1,103,41.57a9.47,9.47,0,0,1-3,6.71,13.61,13.61,0,0,1-6.92,2.88,35,35,0,0,1-12.33,0,13.53,13.53,0,0,1-6.8-2.89,9.44,9.44,0,0,1-3-6.7,12.49,12.49,0,0,1,2.11-7.09,33.69,33.69,0,0,0,2.81-4.26c.69-1.55.79-3.55-.36-4.81a1.48,1.48,0,0,0-.71-.47,2.71,2.71,0,0,0-1.25.15,3.59,3.59,0,0,1-2.86-6.43c.36-.25.83-.55.78-1,0-.28-.27-.48-.46-.69a2.19,2.19,0,0,1,.36-3.05c.39-.29.91-.46,1.14-.89a2.71,2.71,0,0,0,.08-1.39c-.2-3.49,4.73-4.87,6.52-2,.34.54.58,1.23,1.17,1.47a4.59,4.59,0,0,0,1.23.11,2,2,0,0,1,1.74,2.13c0,.42-.19.9.08,1.21a1.07,1.07,0,0,0,.52.26L86,15.5a4.22,4.22,0,0,0-.84,4c.33,1.4,1,2.69,1.34,4.09a8.09,8.09,0,0,1-.3,4.57,4.93,4.93,0,0,0-.41,1.39,1.19,1.19,0,0,0,.63,1.2,10.68,10.68,0,0,0,1-9,9.79,9.79,0,0,1-1-3.5,3.48,3.48,0,0,1,2.77-3.18c.66-.11,1.53-.17,1.68-.81a2,2,0,0,0-.07-.8,2.08,2.08,0,0,1,1.89-2.28A3.14,3.14,0,0,0,94,11.12c.44-.22.61-.75.84-1.19A3.52,3.52,0,0,1,101,9.82c.55,1,.59,2.21,1.15,3.21.3.54.75,1,1.07,1.53a1.9,1.9,0,0,1,.22,1.78c-.25.5-.84.88-.78,1.44s.49.71.84,1A3.67,3.67,0,0,1,104.61,23Z"/><path class="cls-1" d="M88.26,43.64a6.78,6.78,0,0,0,4.26,3.74,6.18,6.18,0,0,0,5.77-1.79,8.35,8.35,0,0,0,2.18-5.77,8.49,8.49,0,0,0-1.68-5.2l-.11-.15a6.53,6.53,0,0,0-4.63-2.42C88.27,31.78,86.17,39.3,88.26,43.64ZM99,39.86c0,3.39-2.33,6.25-5.07,6.28s-5.1-2.89-5.06-6.41,2.24-6.24,5-6.26S99,36.37,99,39.86Z"/><path class="cls-1" d="M83,32.69a6,6,0,0,0-5-.43c-2.25.9-3.63,3.26-4.08,5.64a9.1,9.1,0,0,0,1,6.32,6.41,6.41,0,0,0,5.39,3.17,6.26,6.26,0,0,0,4.53-2.26,6.76,6.76,0,0,0,1-1.53C87.52,40,86.65,34.8,83,32.69Zm2.2,8.05a10.56,10.56,0,0,1-.29,1.14c-.78,2.48-2.61,4-4.76,4s-4.11-1.65-4.79-4.2A16.65,16.65,0,0,1,75,40c0-4.2,2.76-7.18,5.94-6.6C83.65,33.94,85.77,37.6,85.16,40.74Z"/><path class="cls-1" d="M93.29,39.58a1.45,1.45,0,0,0-.66,2.65,1.39,1.39,0,0,0,1.49-.06,1.49,1.49,0,0,0,.28-2.08A1.28,1.28,0,0,0,93.29,39.58Z"/><path class="cls-1" d="M79.7,41.86a1.39,1.39,0,0,0,1,.38,1.37,1.37,0,0,0,1-.4,1.44,1.44,0,0,0,0-2A1.4,1.4,0,0,0,79.7,41.86Z"/><path class="cls-1" d="M83.26,26.85a1.17,1.17,0,0,0,0-1.27l-.08-.13a4.94,4.94,0,0,0-.85-.86,13.62,13.62,0,0,1-1.6-1.71.77.77,0,0,1-.19-.42.71.71,0,0,1,.1-.31c.37-.74.73-1.48,1.1-2.23A2.17,2.17,0,0,0,82,19a.74.74,0,0,0-.47-.73.73.73,0,0,0-.65.21,1.79,1.79,0,0,0-.39.59c-.29.56-.57,1.12-.84,1.69a9.58,9.58,0,0,1-.89-2.14,3.28,3.28,0,0,1-.15-1.49c.17-1,1-1.73,1.51-2.62a1.55,1.55,0,0,0,.26-.9.74.74,0,0,0-.57-.68c-.44-.06-.76.38-1,.76l-1.19,2.09a.62.62,0,0,1-.25.28c-.17.08-.38,0-.54-.13L75,14.81a1.5,1.5,0,0,0-1-.31.69.69,0,0,0-.46.77c.06.36.4.6.71.8.49.3,1,.58,1.51.84a3.56,3.56,0,0,1,1.31.91,3.15,3.15,0,0,1,.46,1c.25.8.5,1.6.74,2.4l-1.64-.75a1.46,1.46,0,0,0-.8-.19.74.74,0,0,0-.43,1.11,1.55,1.55,0,0,0,.74.41,10.86,10.86,0,0,1,3.49,2C80.76,24.88,81.78,26.23,83.26,26.85Z"/><path class="cls-1" d="M99.6,15.28a1.52,1.52,0,0,0-1,.39L96.74,17a.67.67,0,0,1-.54.17.68.68,0,0,1-.27-.26l-1.34-2c-.25-.37-.6-.78-1-.69a.72.72,0,0,0-.52.72,1.56,1.56,0,0,0,.32.89c.57.84,1.47,1.51,1.71,2.49a3.45,3.45,0,0,1,0,1.5,9.47,9.47,0,0,1-.73,2.2c-.31-.54-.63-1.09-1-1.62a1.85,1.85,0,0,0-.44-.56.64.64,0,0,0-1.08.61,2.17,2.17,0,0,0,.36.86l1.27,2.14a.66.66,0,0,1,.12.3.64.64,0,0,1-.16.43A12.88,12.88,0,0,1,92,26a4.94,4.94,0,0,0-.78.93s-.05.08-.07.13a1.17,1.17,0,0,0,.11,1.27c1.42-.74,2.34-2.16,3.48-3.29A10.63,10.63,0,0,1,98,22.77a1.43,1.43,0,0,0,.7-.47.73.73,0,0,0-.51-1.07,1.38,1.38,0,0,0-.77.25l-1.59.87c.19-.82.37-1.63.56-2.45a3.11,3.11,0,0,1,.38-1.07,3.44,3.44,0,0,1,1.23-1c.5-.3,1-.62,1.45-1a1.35,1.35,0,0,0,.64-.85A.7.7,0,0,0,99.6,15.28Z"/><ellipse class="cls-1" cx="87.06" cy="48.29" rx="1.19" ry="2.37"/><rect class="cls-1" x="123.84" y="23.83" width="4" height="11.61"/><path class="cls-1" d="M113.71,45.61h14.06v-9H113.71Zm3.83-5.79h6.4V42.4h-6.4Z"/><rect class="cls-1" x="146" y="23.85" width="3.88" height="21.76"/><rect class="cls-1" x="133.78" y="23.85" width="7.46" height="3.22"/><path class="cls-1" d="M144.44,38.06c-.56-.22-1.11-.49-1.66-.77a8.63,8.63,0,0,1-.74-.45,6.48,6.48,0,0,1-1.52-1.49,5.36,5.36,0,0,1-.83-1.74,4.59,4.59,0,0,1-.18-1.55h5.11V28.22H130.54v3.84h5a4.59,4.59,0,0,1-.18,1.55,5.57,5.57,0,0,1-.83,1.74A6.48,6.48,0,0,1,133,36.84a8.63,8.63,0,0,1-.74.45c-.15.07-.29.15-.43.23a11.24,11.24,0,0,1-1.1.54l-.3.12-.36.13,1.67,3.74L132,42a12.11,12.11,0,0,0,2.6-1.28,10.8,10.8,0,0,0,3-2.32,12.46,12.46,0,0,0,3,2.32A12.43,12.43,0,0,0,143.2,42l.22.08,1.68-3.74-.36-.13C144.64,38.14,144.54,38.11,144.44,38.06Z"/><path class="cls-1" d="M121.51,24.33v-.49l-11.43,0v3.43l7.08,0h.11l0,.1c-.88,3.06-3.07,4.88-6.94,5.73l-.68.15,1.29,3.32.47-.1C117.84,35.14,121.53,30.72,121.51,24.33Z"/></g></g></svg>