<?xml version="1.0" encoding="utf-8"?>
<!-- Generator: Adobe Illustrator 24.1.2, SVG Export Plug-In . SVG Version: 6.00 Build 0)  -->
<svg version="1.1" id="레이어_1" xmlns="http://www.w3.org/2000/svg" xmlns:xlink="http://www.w3.org/1999/xlink" x="0px"
	 y="0px" viewBox="0 0 64.6 25" style="enable-background:new 0 0 64.6 25;" xml:space="preserve">
<style type="text/css">
	.st0{enable-background:new    ;}
	.st1{fill:#333333;}
	.st2{fill:#EF2900;}
</style>
<g id="레이어_2_1_">
	<g id="레이어_1-2">
		<g class="st0">
			<path class="st1" d="M33.5,10.1v2.1H37v1.1c0,0.2-0.1,0.4-0.2,0.5c-0.1,0.1-0.3,0.1-0.5,0.1h-2.8v2.2h4v1c0,0.2-0.1,0.4-0.2,0.6
				s-0.3,0.2-0.6,0.2h-4.7c-0.2,0-0.4-0.1-0.6-0.2s-0.2-0.3-0.2-0.6V8.4h6.2v1.1c0,0.2-0.1,0.4-0.2,0.5c-0.1,0.1-0.3,0.1-0.5,0.1
				H33.5z"/>
			<path class="st1" d="M43.8,17.9l-2.8-5c0,0,0-0.1-0.1-0.3c0-0.1-0.1-0.2-0.1-0.3c0,0.1,0,0.2,0,0.3c0,0.2,0,0.2,0,0.3v4.1
				c0,0.2-0.1,0.4-0.3,0.6c-0.2,0.1-0.4,0.2-0.6,0.2h-1.4V8.4h2l2.7,4.9c0,0,0.1,0.1,0.1,0.3c0,0.1,0.1,0.2,0.1,0.3
				c0-0.1,0-0.2,0-0.3s0-0.2,0-0.3V8.4h2.2v8.8c0,0.2-0.1,0.4-0.3,0.6c-0.2,0.1-0.4,0.2-0.6,0.2H43.8z"/>
			<path class="st1" d="M50.1,12.6h3.8v1.5c0,1.4-0.3,2.4-0.9,3S51.6,18,50.4,18c-0.9,0-1.6-0.3-2.2-0.8c-0.6-0.5-1-1.2-1.1-2.2
				c-0.1-0.5-0.1-1.2-0.2-1.9c0-0.8,0-1.4,0.1-2c0.2-0.9,0.6-1.7,1.2-2.2c0.6-0.5,1.4-0.8,2.2-0.8c0.9,0,1.7,0.3,2.4,0.9
				s1,1.3,1.1,2.2h-2.2c-0.1-0.4-0.2-0.8-0.5-1s-0.5-0.4-0.8-0.4c-0.3,0-0.5,0.1-0.8,0.4c-0.3,0.3-0.4,0.7-0.5,1.3
				c0,0.4,0,0.9,0,1.5c0,0.6,0,1.1,0.1,1.4c0.1,0.5,0.2,0.9,0.4,1.3c0.2,0.3,0.5,0.5,0.8,0.5c0.4,0,0.7-0.1,1-0.4s0.3-0.7,0.3-1.3
				v-0.4h-0.9c-0.2,0-0.4,0-0.5-0.1c-0.1-0.1-0.2-0.2-0.2-0.5V12.6z"/>
		</g>
		<polygon class="st2" points="61.1,15.2 64.6,11.2 57.6,11.2 		"/>
		<path class="st1" d="M12.5,0.1L12.5,0.1h-0.1C5.5,0.1,0,5.7,0,12.6S5.6,25,12.5,25c6.9,0,12.4-5.7,12.4-12.5
			C24.9,5.6,19.4,0.1,12.5,0.1z M21.9,8h-4.6c-0.4-2-1.3-4-2.5-5.6C17.9,3.1,20.5,5.1,21.9,8z M22.9,12.6c0,0.9-0.1,1.8-0.4,2.7
			h-4.9c0.1-0.9,0.2-1.7,0.2-2.6c0-0.9-0.1-1.8-0.2-2.7h4.9C22.8,10.8,22.9,11.7,22.9,12.6L22.9,12.6z M12.5,22.6
			c-1.4-1.5-2.3-3.4-2.8-5.3h5.6C14.8,19.2,13.8,21.1,12.5,22.6z M9.3,15.3c-0.1-0.9-0.2-1.7-0.2-2.6c0-0.9,0.1-1.8,0.2-2.6h6.3
			c0.1,0.9,0.2,1.8,0.2,2.7c0,0.9-0.1,1.8-0.2,2.6L9.3,15.3z M2,12.5c0-0.8,0.1-1.7,0.3-2.5h5c-0.1,0.9-0.2,1.8-0.2,2.7
			c0,0.9,0.1,1.8,0.2,2.6H2.4C2.1,14.4,2,13.4,2,12.5z M15.2,8H9.7c0.5-2,1.4-3.8,2.8-5.3C13.8,4.2,14.8,6,15.2,8z M10.2,2.3
			C8.9,4,8.1,6,7.6,8H3.1C4.4,5.1,7.1,3,10.2,2.3z M3.2,17.3h4.5c0.4,1.9,1.2,3.8,2.4,5.4C7,21.9,4.5,20,3.2,17.3L3.2,17.3z
			 M15,22.6c1.1-1.6,1.9-3.5,2.3-5.4h4.5C20.4,20,17.9,21.9,15,22.6z"/>
	</g>
</g>
</svg>
