<svg xmlns="http://www.w3.org/2000/svg" viewBox="0 0 300 188"><defs><style>.cls-1{fill:none;}.cls-2{fill:#5b0808;}</style></defs><g id="레이어_2" data-name="레이어 2"><g id="레이어_1-2" data-name="레이어 1"><rect class="cls-1" width="300" height="188"/><path class="cls-2" d="M150,61.63A51.43,51.43,0,0,1,201.37,113c0,.5,0,1,0,1.48l-3.78-2.82c-2.07-1.54-2.36-3.15-2.82-6.66l0-.13c-.07-.53-.16-1.08-.28-1.68-1.45-7.18-5.89-9.08-9.36-9.42-.44,0-.9-.06-1.37-.06a21.1,21.1,0,0,0-4.11.45l-.34-.2a19.85,19.85,0,0,0-6.63-2.16h0l-.37-.09L171,91.42l-.91-.21-.25,0L169,91l-.84-.21-.14,0-.27-.07-.28-.07c-.52-.15-1-.29-1.39-.44a12.64,12.64,0,0,1-1.42-.59l-.13-.06-.25-.14c-.32-.17-.58-.31-.78-.44s-.25-.17-.36-.25a6.84,6.84,0,0,1-.58-.45l-.29-.26a6.17,6.17,0,0,1-.46-.5,2.43,2.43,0,0,0-.2-.25l0,0a5.14,5.14,0,0,1-.41-.64l-.06-.15,0,0,0,0a7.07,7.07,0,0,1-.32-.83l0-.13-.06-.26a9.4,9.4,0,0,1-.28-2.56v-.36l-.06-.35c-.53-3.32-3.25-6.66-5.44-8.88a8.79,8.79,0,0,0-2.42-1.78,15.51,15.51,0,0,0-2.1-.78l-.17-.05-.65-.19-.33-.1c-.16,0-.31-.1-.46-.15l-.13,0-.28-.11-.13-.08-.09-.05,0,0,0,0,0,0s0,0,0,0l-2.89-5.55-3.83,4.94c-2.36,3.06-2.93,6.39-3.38,9.06-.17,1-.33,1.94-.56,2.78l-.38-.11-.33-.1-.46-.15-.13,0a1.49,1.49,0,0,1-.28-.11l-.13-.07-.09,0,0,0,0,0h0l-.07-.07s0,0,0,0l-2.89-5.54-3.82,4.94c-2.37,3-2.93,6.38-3.39,9.06a21.56,21.56,0,0,1-.74,3.36l0,.1h0l-.21-.07-.12,0-.53-.15-.33-.1-.48-.16-.08,0h0a2,2,0,0,1-.28-.12l-.13-.07-.09,0,0,0-.06-.06,0,0,0,0L119.2,85.3l-3.83,5c-2.37,3-2.93,6.38-3.39,9.06a22,22,0,0,1-.74,3.37c-1.71,5,.42,7.33,2.5,8.44a6.41,6.41,0,0,0,2.2.73c-.2,1-.37,1.92-.5,2.91-.51-.05-1.06-.09-1.62-.1h-.46c-5.21,0-7.45,2.83-8.4,5a4.46,4.46,0,0,0-.41.92l-.4.83-1,2-.22.7-.14.51c-.45,3.24-.55,6.71,1.67,10l1,1.11.54.42a5.35,5.35,0,0,0,4.21,2.21,5.58,5.58,0,0,0,3.53-1.35,6.59,6.59,0,0,0,2.32-5.51,5,5,0,0,0-2.61-4l-.32-.18c0-.1.1-.21.16-.32a22.94,22.94,0,0,0,6.88,2.27,15.69,15.69,0,0,1,4.83,1.52,19.38,19.38,0,0,0,10.25,2.83,23,23,0,0,0,4.41-.44,8.68,8.68,0,0,1,1.67-.17,8.32,8.32,0,0,1,2.31.33l0,0a11.54,11.54,0,0,0,4.54,5.31,10.19,10.19,0,0,1,5.06,6.73,7.9,7.9,0,0,0,3.66,5.86c.25.19.59.45.71.57l.33.54.46.37.18.2a5.65,5.65,0,0,0,4.27,2.29,5.06,5.06,0,0,0,4.1-2.21c.64-.85,2.58-3.42,1.42-6.39a5.7,5.7,0,0,0-4.56-3.45,9,9,0,0,1-.35-1.74,10.93,10.93,0,0,0-2.19-5.87l-.86-1.11-.47-1.15c.05-.67.16-1.41.27-2.19.09-.62.18-1.24.25-1.86a10.22,10.22,0,0,0,0-2.21,7.44,7.44,0,0,0,1,.66,10.19,10.19,0,0,1,5.06,6.73,7.9,7.9,0,0,0,3.66,5.86,7.89,7.89,0,0,1,.71.57l.33.54.46.37a1.63,1.63,0,0,1,.17.2,5.65,5.65,0,0,0,4.28,2.29,5.06,5.06,0,0,0,4.1-2.21c.64-.85,2.58-3.43,1.42-6.4a5.71,5.71,0,0,0-4.56-3.44,9.12,9.12,0,0,1-.35-1.74c-.28-2-.69-4.9-3.39-7a5.28,5.28,0,0,1-.14-1c0-.7.16-1.5.28-2.33.09-.62.18-1.24.25-1.86a7.71,7.71,0,0,0,.06-1.16l.26.15a10.14,10.14,0,0,1,5.06,6.72,7.92,7.92,0,0,0,3.67,5.86c.25.19.59.45.71.57l.33.54.46.37c.06.06.11.13.17.2a5.65,5.65,0,0,0,4.28,2.3,5,5,0,0,0,4.07-2.18l0,0h0c.64-.85,2.58-3.43,1.41-6.39a5.68,5.68,0,0,0-4.55-3.45,8.26,8.26,0,0,1-.35-1.74c-.09-.61-.18-1.3-.36-2a9.59,9.59,0,0,0,4.48,1,12.15,12.15,0,0,0,2.29-.22l5.24-1A51.37,51.37,0,1,1,150,61.63m0-4A55.37,55.37,0,1,0,205.37,113,55.37,55.37,0,0,0,150,57.63Zm-7.38,28.88a2,2,0,0,1-.6-.11c-.47-.55-.93-1-1.32-1.43l-.17-.15a5.07,5.07,0,0,1,.41-2.23c1.25-3.63.8-7.78,3.51-11.28a4.07,4.07,0,0,0,.52.78c.05.07.12.13.18.2a4.2,4.2,0,0,0,.44.41l.21.17a4.53,4.53,0,0,0,.55.34l.15.09c.25.12.5.22.76.32l.21.07.62.2.36.11.64.19.19.06a11,11,0,0,1,1.49.54,4.82,4.82,0,0,1,1.3,1C153.31,77,156,80,156.4,82.47a13.27,13.27,0,0,0,.4,3.61c0,.18.08.38.13.56a10.62,10.62,0,0,0,.56,1.43l.06.14a10.39,10.39,0,0,0,.86,1.39c.1.13.22.26.33.39a10.19,10.19,0,0,0,.77.85c.14.14.3.27.46.41s.56.46.87.68.35.25.53.36c.34.22.71.42,1.08.62.18.09.34.19.52.27a18.1,18.1,0,0,0,1.79.74c.55.2,1.1.37,1.65.52l.62.16c.36.09.71.19,1.07.27l.83.19,1.17.26,1.25.28.55.13h0a16.26,16.26,0,0,1,5.39,1.71,4,4,0,0,0,2,.81,2.8,2.8,0,0,0,.55-.06,17.93,17.93,0,0,1,3.84-.48c.35,0,.68,0,1,.05,3.2.3,5,2.22,5.82,6.23.09.44.17.91.23,1.41.47,3.55.87,6.82,4.41,9.47a8.8,8.8,0,0,1-1.55.15c-3.7,0-5.05-2.91-7.18-4.79-2.6-2.3-1.13-6.46-4.65-8.75a17.73,17.73,0,0,0,.34,2.23l.06.3a11,11,0,0,1,.34,3.37c-.18,1.58-.51,3.14-.57,4.65a9.06,9.06,0,0,0,.53,2.79l.25.43.57.63h0c2.95,2,1.6,5.68,3.26,8.18a3.42,3.42,0,0,0,2.45,1.61c3.08.54,1.24,2.89.74,3.56a1.17,1.17,0,0,1-.87.58c-.69,0-1.26-1.06-1.86-1.55-1.08-1.76-3.79-2.25-3.77-4.86a14.29,14.29,0,0,0-7.1-9.65c-2-1.09-2.62-3.28-3.72-5.09a12.82,12.82,0,0,0-5.09-1.08l-.46,0a7.29,7.29,0,0,0-1.34-1.27,18,18,0,0,0-6-1.91h0l-.09,0-.36-.09-1.26-.28-.78-.17-.39-.09-.12,0-.69-.15-.87-.22-.15,0-.25-.07c-.11,0-.23,0-.34-.09-.52-.14-1-.3-1.54-.48s-1.07-.41-1.63-.67l-.24-.13-.22-.12c-.33-.17-.65-.35-1-.54l-.46-.31c-.26-.18-.5-.38-.74-.58l-.38-.34c-.2-.2-.4-.42-.64-.71l-.16-.18-.11-.13a8.17,8.17,0,0,1-.67-1.08l-.07-.16a7.87,7.87,0,0,1-.47-1.2l-.06-.25-.05-.22a11.71,11.71,0,0,1-.35-3.15v-.16l0-.15c.43-2.49,1.14-5,1.64-7.46.16-.77.35-1.76-.6-2.13a1.32,1.32,0,0,0-.43-.09c-.71,0-.84.89-1.18,1.42-.63,1-1.22,2.15-2.33,2.15ZM130,96.94a2.23,2.23,0,0,1-1.07-.31c-1.56-.83-1-2.34-.61-3.61,1.25-3.64.8-7.78,3.51-11.28a4.07,4.07,0,0,0,.52.78l.18.2a4.2,4.2,0,0,0,.44.41,1.84,1.84,0,0,0,.22.17c.17.12.35.23.54.34l.15.08c.25.12.5.23.76.33l.21.07.62.2.36.11.64.18.19.06a10.59,10.59,0,0,1,1.49.55,4.78,4.78,0,0,1,1.3,1c1.24,1.27,3.94,4.24,4.33,6.69a13.18,13.18,0,0,0,.4,3.61,5.09,5.09,0,0,0,.14.56,11.28,11.28,0,0,0,.55,1.44.75.75,0,0,1,.06.13,9.9,9.9,0,0,0,.86,1.4c.1.13.22.25.33.38a8.82,8.82,0,0,0,.77.85c.15.14.3.28.46.41a10.15,10.15,0,0,0,.87.69l.53.36c.34.22.71.42,1.08.62l.52.27a17.34,17.34,0,0,0,1.8.74c.54.19,1.09.36,1.64.52l.62.16c.36.09.71.19,1.07.27l.83.19,1.17.26,1.25.28.55.13h0a16.49,16.49,0,0,1,5.39,1.71,31.28,31.28,0,0,1,4.84,6.27l.06.31a11,11,0,0,1,.34,3.37c-.18,1.57-.5,3.14-.56,4.65a8.77,8.77,0,0,0,.53,2.78l.24.44.57.63c3,2,1.6,5.68,3.26,8.18a3.41,3.41,0,0,0,2.45,1.6c3.08.55,1.24,2.9.75,3.56a1.17,1.17,0,0,1-.88.58c-.69,0-1.26-1.06-1.86-1.54-1.08-1.76-3.79-2.25-3.77-4.86a14.26,14.26,0,0,0-7.1-9.65c-2-1.09-2.62-3.29-3.72-5.09a12.82,12.82,0,0,0-5.09-1.08,13.81,13.81,0,0,0-1.57.11,5.44,5.44,0,0,0-.93-.82,18,18,0,0,0-6-1.91h0l-.09,0-.36-.09-1.26-.28-.78-.17-.38-.09-.13,0-.68-.15-.88-.22-.15,0-.25-.07a2.14,2.14,0,0,1-.34-.09c-.52-.14-1-.3-1.54-.48s-1.06-.41-1.63-.67l-.24-.13-.22-.12c-.33-.17-.65-.35-1-.54-.15-.1-.31-.2-.45-.31a8.77,8.77,0,0,1-.75-.58l-.38-.34c-.2-.2-.4-.42-.64-.71l-.15-.18-.12-.13a8.17,8.17,0,0,1-.67-1.08l-.07-.16a9.06,9.06,0,0,1-.47-1.2l-.06-.25,0-.22c-.06-.21-.08-.43-.12-.64a5.24,5.24,0,0,0,.13-.9c.26-3.34,1.3-6.61,2-9.91.16-.77.35-1.77-.6-2.13a1.1,1.1,0,0,0-.43-.1c-.71,0-.84.9-1.18,1.42-.63,1-1.22,2.16-2.33,2.16Zm-13.31,11a2.23,2.23,0,0,1-1.07-.31c-1.56-.83-1-2.34-.61-3.61,1.25-3.64.8-7.78,3.51-11.28a4.07,4.07,0,0,0,.52.78l.18.2a4.2,4.2,0,0,0,.44.41,1.84,1.84,0,0,0,.22.17,4.93,4.93,0,0,0,.54.34l.16.08a6.31,6.31,0,0,0,.75.33l.21.07.62.2.36.11.64.18a1.06,1.06,0,0,0,.19.06,10.59,10.59,0,0,1,1.49.55,4.82,4.82,0,0,1,1.3,1c1.25,1.26,3.94,4.23,4.33,6.68a13.18,13.18,0,0,0,.4,3.61,5.09,5.09,0,0,0,.14.56,10,10,0,0,0,.56,1.44s0,.09,0,.13a9.9,9.9,0,0,0,.86,1.4c.1.13.22.25.33.38a8.82,8.82,0,0,0,.77.85c.15.14.3.28.46.41s.57.47.87.69l.53.36c.35.22.71.42,1.09.62l.51.27a17.34,17.34,0,0,0,1.8.74c.54.2,1.09.36,1.64.52l.63.16c.35.09.7.19,1.06.27l.83.19,1.17.26,1.25.28.55.13h0a16.24,16.24,0,0,1,5.39,1.7,31.28,31.28,0,0,1,4.84,6.27l.06.31a11,11,0,0,1,.34,3.37c-.18,1.58-.5,3.14-.56,4.65a8.72,8.72,0,0,0,.53,2.78l.24.44.57.63h0c3,2,1.6,5.68,3.26,8.18a3.43,3.43,0,0,0,2.45,1.6c3.08.55,1.24,2.9.75,3.56a1.17,1.17,0,0,1-.88.58c-.69,0-1.26-1.06-1.86-1.54-1.08-1.76-3.79-2.25-3.77-4.86a14.26,14.26,0,0,0-7.1-9.65c-2-1.09-2.62-3.29-3.72-5.09a12.56,12.56,0,0,0-7.54-.84,18,18,0,0,1-3.63.37,15.54,15.54,0,0,1-8.17-2.24c-4.19-2.55-9.55-1.62-13.39-5a1.16,1.16,0,0,0-.8-.3,6.57,6.57,0,0,0-1.9.61h0c-1.22,2.85-4.22,5.74.58,8.31,1,.52.41,2.22-.36,2.84a1.62,1.62,0,0,1-1,.46c-1,0-1.45-1.77-2.48-2-1.5-2.26-1.38-4.75-1-7.27.54-1.12,1.09-2.24,1.63-3.35-.05,0-.08,0,0-.06.86-2.47,2.85-3,4.91-3h.34c.91,0,1.81.13,2.63.21.32,0,.61,0,.87,0,1.34,0,1.93-.49,2.08-2.45.27-3.34,1.31-6.61,2-9.91.16-.77.36-1.77-.6-2.13a1.07,1.07,0,0,0-.43-.09c-.71,0-.84.89-1.18,1.41-.63,1-1.21,2.16-2.33,2.16Z"/></g></g></svg>