<svg xmlns="http://www.w3.org/2000/svg" viewBox="0 0 300 188"><defs><style>.cls-1{fill:none;}.cls-2{fill:#5b0808;}</style></defs><g id="레이어_2" data-name="레이어 2"><g id="레이어_1-2" data-name="레이어 1"><rect class="cls-1" width="300" height="188"/><path class="cls-2" d="M208.88,116.1l-10.2-5.9-5.9,10.2,10.2,5.9ZM194.32,120l4.77-8.25,8.25,4.77-4.77,8.25Z"/><path class="cls-2" d="M106.12,70.27V69.14c-4,0-8.27-.86-8.27-11.21H96.73c0,10.35-4.27,11.21-8.27,11.21v1.13c4,0,8.27.86,8.27,11.21h1.12C97.85,71.13,102.12,70.27,106.12,70.27ZM92.5,69.71c2.16-.76,3.93-2.47,4.79-6.09.86,3.62,2.63,5.33,4.79,6.09-2.16.75-3.93,2.46-4.79,6.08C96.43,72.17,94.66,70.46,92.5,69.71Z"/><path class="cls-2" d="M86.72,88H85.59c0,10.34-4.27,11.21-8.27,11.21v1.12c4,0,8.27.87,8.27,11.21h1.13c0-10.34,4.26-11.21,8.26-11.21V99.24C91,99.24,86.72,98.37,86.72,88Zm-.57,17.86c-.86-3.63-2.63-5.33-4.79-6.09,2.16-.76,3.93-2.46,4.79-6.09C87,97.34,88.78,99,91,99.8,88.78,100.56,87,102.26,86.15,105.89Z"/><path class="cls-2" d="M150.65,122.29v8.31h9.55v-8.31Zm8.43,7.19h-7.31v-6.07h7.31Z"/><path class="cls-2" d="M150.2,144.21h10.45V132.86H150.2Zm10-5.68ZM156,134h3.54v4H156Zm0,5.11h3.54v4H156ZM151.32,134h3.54v4h-3.54Zm0,5.11h3.54v4h-3.54Z"/><polygon class="cls-2" points="135.34 113.37 135.34 113.93 161.88 113.93 161.88 112.8 135.34 112.8 135.34 113.37"/><polygon class="cls-2" points="136.95 119.66 141.74 119.66 141.74 144.21 142.87 144.21 142.87 119.66 147.66 119.66 147.66 118.53 136.95 118.53 136.95 119.66"/><polygon class="cls-2" points="149.57 119.09 149.57 119.66 161.29 119.66 161.29 119.09 161.29 118.53 149.57 118.53 149.57 119.09"/><polygon class="cls-2" points="137.4 126.81 137.4 135.56 138.53 135.56 138.53 126.81 137.96 126.81 137.4 126.81"/><polygon class="cls-2" points="146.09 126.81 146.09 135.56 147.22 135.56 147.22 126.81 146.65 126.81 146.09 126.81"/><path class="cls-2" d="M217.19,134.66a19.14,19.14,0,0,0-3.51-2.73,18.78,18.78,0,0,0-12.85-32.47,19,19,0,0,0-4.85.64,18.74,18.74,0,0,0-11.52,9L175.21,93.9l3-3a4,4,0,0,0,.3-.28c2.83-3,4.21-4.43,5.39-7.58a7.17,7.17,0,0,0-.86-7.29c-.2-.25-.41-.49-.64-.73a12.37,12.37,0,0,0-3.94-2.73l-1.25-.54a10.27,10.27,0,0,0-5.75-8.52,10.53,10.53,0,0,0-4.56-1h-36.5a10.56,10.56,0,0,0-4.56,1,10.27,10.27,0,0,0-5.75,8.52l-1.24.54a12.31,12.31,0,0,0-4,2.73c-.23.24-.44.48-.64.73a7.17,7.17,0,0,0-.86,7.29c1.18,3.15,2.56,4.55,5.39,7.58a2.8,2.8,0,0,0,.31.28l3,3L97.76,133.69c-2.22,5.08.59,11.23,6.26,13.71l16,7-.27,3.07a10.65,10.65,0,0,0,10.64,10.64h36.5a10.65,10.65,0,0,0,10.64-10.64l-.26-3.07,8.13-3.55a18.77,18.77,0,1,0,31.82-16.15ZM196.8,103.15a15.62,15.62,0,0,1,13.82,27.27,18.68,18.68,0,0,0-13.2-.09l-11-18.05A15.58,15.58,0,0,1,196.8,103.15Zm-20-26.68A7.66,7.66,0,0,1,179,78c1.2,1.18.94,3.07.4,4.5a13.55,13.55,0,0,1-2,3.37,50.38,50.38,0,0,1-5.16,5.67c-.13.13-.53.39-.59.57C171.65,92.11,176.79,76.47,176.8,76.47Zm-52.27-3.35a5.9,5.9,0,0,1,3.2-5.79,6,6,0,0,1,2.63-.59h36.5a6,6,0,0,1,2.63.59,5.88,5.88,0,0,1,3.2,5.79h0a6.09,6.09,0,0,1-.19,1.28L167.85,91.6c-.07.24-.12.48-.17.72H129.54q-.07-.39-.18-.78l-4.64-17.13a6.09,6.09,0,0,1-.19-1.28Zm-4.7,12.75a13.59,13.59,0,0,1-2-3.37c-.54-1.43-.8-3.32.4-4.5a7.71,7.71,0,0,1,2.22-1.53l5.14,15.64c-.06-.18-.46-.44-.59-.57A50.29,50.29,0,0,1,119.83,85.87Zm.57,63.75-14.58-6.35c-3.34-1.46-5.1-4.87-4-7.66l23.15-38Zm46.46,13.95h-36.5a6.14,6.14,0,0,1-6.13-6l.11-1.27h0l.28-3.18c3.72-39.83,4.82-52.46,5-56.73l0-.28,0-.58h37.82l0,.58,0,.28c.18,4.27,1.28,16.9,5,56.73l.28,3.18h0l.12,1.27A6.16,6.16,0,0,1,166.86,163.57ZM185.25,146l-8.43,3.67-4.59-52,21.18,34.71a19.52,19.52,0,0,0-2.79,2.29A18.67,18.67,0,0,0,185.25,146ZM215,159a15.62,15.62,0,1,1,0-22.1A15.56,15.56,0,0,1,215,159Z"/><path class="cls-2" d="M198,153.84H209.8V142.06H198Zm1.13-10.66h9.53v9.53h-9.53Z"/></g></g></svg>