<svg xmlns="http://www.w3.org/2000/svg" viewBox="0 0 300 188"><defs><style>.cls-1{fill:none;}.cls-2{fill:#5b0808;}</style></defs><g id="레이어_2" data-name="레이어 2"><g id="레이어_1-2" data-name="레이어 1"><rect class="cls-1" width="300" height="188"/><path class="cls-2" d="M200.66,93.81l-7-7a41.69,41.69,0,0,0-.46-9.67l-.26-1.47-1.47-.26a41.68,41.68,0,0,0-9.67-.45l-7-7a27.14,27.14,0,0,0-38.38,0l-8.7,8.71a37.68,37.68,0,0,0-6.25.54l-1.47.26-.26,1.47a37.68,37.68,0,0,0-.54,6.25l-8.71,8.7a27.1,27.1,0,0,0-7.75,22.33,45.89,45.89,0,0,0-4.41,3.36,4.65,4.65,0,1,0,2.49,4.11,4.62,4.62,0,0,0-.43-1.93c1-.82,1.93-1.58,2.92-2.29a27.17,27.17,0,0,0,2.77,7,43.45,43.45,0,0,0-3.69,5.75,4.66,4.66,0,1,0,3.6,4.53,4.62,4.62,0,0,0-1.06-2.92,41.62,41.62,0,0,1,2.9-4.66,26.52,26.52,0,0,0,2.66,3.09l7,7a41.77,41.77,0,0,0,.45,9.68l.26,1.47,1.47.26a39.59,39.59,0,0,0,6.78.56c1,0,1.92,0,2.9-.1l7,7a27.16,27.16,0,0,0,38.38,0l8.71-8.71a40.17,40.17,0,0,0,6.25-.54l1.47-.26.26-1.47a40.17,40.17,0,0,0,.54-6.25l8.71-8.71A27.17,27.17,0,0,0,200.66,93.81Zm-16-14.74a36.69,36.69,0,0,1,4.54.27,40.2,40.2,0,0,1,.09,8.53c-.39,4.41-2.15,15.17-10,19.66a16.43,16.43,0,0,1-12.61,1.54,12,12,0,0,0-2.31-3.92l14.36-14.36a.71.71,0,0,0-1-1l-14.36,14.36a11.44,11.44,0,0,0-3.92-2.31A16.5,16.5,0,0,1,161,89.22c4.48-7.81,15.24-9.57,19.66-10C182,79.13,183.36,79.07,184.65,79.07Zm-23.75,39.3a7.58,7.58,0,1,1,0-10.74A7.55,7.55,0,0,1,160.9,118.37ZM139.35,70.89a22.89,22.89,0,0,1,32.36,0l4.64,4.64c-6.37,1.13-14.73,4.06-19,11.58A19.45,19.45,0,0,0,156,89.83c-.17-.33-.33-.66-.51-1-5-8.81-15.68-11.31-22.12-12ZM123.63,81.1a40.12,40.12,0,0,1,8.52-.09c4.42.39,15.18,2.16,19.67,10a17,17,0,0,1,2.05,10.31,11.73,11.73,0,0,0-6.19,2.86L133.32,89.79a.71.71,0,0,0-1,1l14.36,14.36a11.65,11.65,0,0,0-2.86,6.19,17,17,0,0,1-10.31-2c-7.82-4.49-9.58-15.25-10-19.66A40.2,40.2,0,0,1,123.63,81.1ZM113.42,96.83l6-6c.58,5.36,2.42,13.58,8.07,19.11a37.43,37.43,0,0,0-4.1-.24,36.55,36.55,0,0,0-16.58,4A22.76,22.76,0,0,1,113.42,96.83ZM109,122.9a23,23,0,0,1-1.91-5.93,33.57,33.57,0,0,1,16.26-4.24c.89,0,1.78,0,2.67.11-1.06.28-2.12.61-3.16,1A36.31,36.31,0,0,0,109,122.9Zm9.06,10.92-4.64-4.64a22.25,22.25,0,0,1-2.88-3.53,33.52,33.52,0,0,1,13.35-9,33,33,0,0,1,5-1.37C121.92,119.7,119.15,127.68,118.06,133.82Zm3.81,12.85a40.2,40.2,0,0,1-.09-8.53c.39-4.42,2.15-15.18,10-19.66a16.46,16.46,0,0,1,12.62-1.54,11.63,11.63,0,0,0,2.31,3.92l-14.36,14.36a.71.71,0,1,0,1,1l14.36-14.36a11.93,11.93,0,0,0,3.92,2.32,16.5,16.5,0,0,1-1.54,12.6c-4.49,7.82-15.25,9.58-19.66,10A40.23,40.23,0,0,1,121.87,146.67Zm49.84,8.44a22.89,22.89,0,0,1-32.36,0l-4.64-4.64c6.37-1.13,14.73-4.05,19-11.57a20,20,0,0,0,1.29-2.72c.17.32.33.65.51,1,5.06,8.82,15.68,11.32,22.12,12Zm15.73-10.2a40.2,40.2,0,0,1-8.53.09c-4.42-.4-15.18-2.16-19.66-10a16.92,16.92,0,0,1-2.05-10.3,11.72,11.72,0,0,0,6.19-2.86l14.35,14.36a.71.71,0,0,0,1,0,.72.72,0,0,0,0-1l-14.36-14.36a11.84,11.84,0,0,0,2.86-6.19,16.92,16.92,0,0,1,10.3,2c7.82,4.49,9.58,15.24,10,19.66A40.2,40.2,0,0,1,187.44,144.91Zm10.2-15.73-6,6c-.69-6.44-3.19-17.06-12-22.11-.31-.18-.64-.35-1-.52a20.12,20.12,0,0,0,2.73-1.29c7.51-4.31,10.44-12.67,11.57-19l4.64,4.64A22.9,22.9,0,0,1,197.64,129.18Z"/></g></g></svg>