<?xml version="1.0" encoding="utf-8"?>
<!-- Generator: Adobe Illustrator 24.1.2, SVG Export Plug-In . SVG Version: 6.00 Build 0)  -->
<svg version="1.1" id="레이어_1" xmlns="http://www.w3.org/2000/svg" xmlns:xlink="http://www.w3.org/1999/xlink" x="0px"
	 y="0px" viewBox="0 0 46 55" style="enable-background:new 0 0 46 55;" xml:space="preserve">
<style type="text/css">
	.st0{enable-background:new    ;}
	.st1{fill:#333333;}
	.st2{fill:#EF2900;}
	.st3{fill:none;}
</style>
<g id="레이어_2_1_">
	<g id="kimAca">
		<g class="st0">
			<path class="st1" d="M14.4,42v2.1h3.4v1.1c0,0.2-0.1,0.4-0.2,0.5c-0.1,0.1-0.3,0.1-0.5,0.1h-2.8v2.2h4v1c0,0.2-0.1,0.4-0.2,0.6
				c-0.1,0.1-0.3,0.2-0.6,0.2h-4.7c-0.2,0-0.4-0.1-0.6-0.2s-0.2-0.3-0.2-0.6v-8.8h6.2v1.1c0,0.2-0.1,0.4-0.2,0.5
				C18.1,42,18,42,17.8,42H14.4z"/>
			<path class="st1" d="M24.6,49.8l-2.8-5c0,0,0-0.1-0.1-0.3s-0.1-0.2-0.1-0.3c0,0.1,0,0.2,0,0.3c0,0.2,0,0.2,0,0.3V49
				c0,0.2-0.1,0.4-0.3,0.6c-0.2,0.1-0.4,0.2-0.6,0.2h-1.4v-9.5h2l2.7,4.9c0,0,0.1,0.1,0.1,0.3c0,0.1,0.1,0.2,0.1,0.3
				c0-0.1,0-0.2,0-0.3s0-0.2,0-0.3v-4.8h2.2V49c0,0.2-0.1,0.4-0.3,0.6c-0.2,0.1-0.4,0.2-0.6,0.2H24.6z"/>
			<path class="st1" d="M31,44.5h3.8V46c0,1.4-0.3,2.4-0.9,3S32.4,50,31.3,50c-0.9,0-1.6-0.3-2.2-0.8c-0.6-0.5-1-1.2-1.1-2.2
				c-0.1-0.5-0.1-1.2-0.2-1.9c0-0.8,0-1.4,0.1-2c0.2-0.9,0.6-1.7,1.2-2.2c0.6-0.5,1.4-0.8,2.2-0.8c0.9,0,1.7,0.3,2.4,0.9
				s1,1.3,1.1,2.2h-2.2c-0.1-0.4-0.2-0.8-0.5-1s-0.5-0.4-0.8-0.4c-0.3,0-0.5,0.1-0.8,0.4c-0.3,0.3-0.4,0.7-0.5,1.3
				c0,0.4,0,0.9,0,1.5c0,0.6,0,1.1,0.1,1.4c0.1,0.5,0.2,0.9,0.4,1.3c0.2,0.3,0.5,0.5,0.8,0.5c0.4,0,0.7-0.1,1-0.4s0.3-0.7,0.3-1.3
				v-0.4h-0.9c-0.2,0-0.4,0-0.5-0.1C31,45.9,31,45.7,31,45.5V44.5z"/>
		</g>
		<polygon class="st2" points="41.9,47.2 45.4,43.2 38.4,43.2 		"/>
		<path class="st1" d="M23,34.8h-0.5c-7.3-0.4-12.9-6.6-12.6-13.9c0.4-7,6-12.4,13-12.6H23l0,0c7.3,0.1,13.2,5.9,13.3,13.2
			C36.2,28.9,30.3,34.8,23,34.8C23,34.8,23,34.8,23,34.8z M28.1,26.6c-0.5,2.1-1.3,4-2.5,5.8l-0.2,0.3l0.3-0.1
			c3.2-0.8,5.9-2.9,7.4-5.9l0.1-0.2h-5.1L28.1,26.6z M12.9,26.7c1.5,2.9,4.2,5.1,7.4,5.9l0.3,0.1l-0.2-0.3c-1.2-1.8-2-3.7-2.5-5.8
			v-0.1h-5.2L12.9,26.7z M19.9,26.7c0.5,2.2,1.5,4.2,3,5.8l0.1,0.1l0.1-0.1c1.5-1.6,2.5-3.6,3-5.8v-0.2h-6.3L19.9,26.7z M28.4,18.9
			c0.1,0.9,0.2,1.9,0.2,2.9c0,0.9-0.1,1.9-0.2,2.8v0.1h5.5v-0.1c0.5-1.9,0.6-3.9,0.1-5.8v-0.1h-5.6L28.4,18.9z M19.4,18.9
			c-0.1,1-0.2,1.9-0.2,2.9c0,0.9,0.1,1.9,0.2,2.8v0.1h7v-0.1c0.1-0.9,0.2-1.9,0.2-2.8c0-1-0.1-1.9-0.2-2.9v-0.1h-7L19.4,18.9z
			 M12,18.9c-0.5,1.9-0.5,3.9,0,5.7v0.1h5.5v-0.1c-0.1-0.9-0.2-1.9-0.2-2.8c0-1,0.1-1.9,0.2-2.9v-0.1L12,18.9L12,18.9z M25.3,10.8
			c1.3,1.8,2.2,3.8,2.7,6v0.1h5.2l-0.1-0.2c-1.5-3.1-4.3-5.4-7.7-6.1l-0.3-0.1L25.3,10.8z M22.9,11c-1.5,1.6-2.5,3.6-3,5.7v0.2h6.3
			v-0.2c-0.5-2.1-1.5-4.1-3-5.8L23,10.8L22.9,11z M20.5,10.6c-3.4,0.8-6.2,3-7.7,6.1l-0.1,0.2h5.2v-0.1c0.5-2.2,1.4-4.2,2.7-6
			l0.2-0.3L20.5,10.6z"/>
		<rect class="st3" width="46" height="55"/>
	</g>
</g>
</svg>
