<svg xmlns="http://www.w3.org/2000/svg" viewBox="0 0 200 209.68"><defs><style>.cls-1{fill:#fcfcfb;}.cls-2{fill:none;}.cls-3,.cls-4{fill:#5b0808;}.cls-4{stroke:#fcfcfb;stroke-miterlimit:10;}</style></defs><g id="레이어_2" data-name="레이어 2"><g id="레이어_1-2" data-name="레이어 1"><path class="cls-1" d="M96.51,39.27a5,5,0,0,0-2.17-3.48,9.07,9.07,0,0,0-2.18-.62,2.55,2.55,0,0,1-.71-.37,3.31,3.31,0,0,1-.58-.57,1.47,1.47,0,0,0-2.15-.07,1.22,1.22,0,0,0-.59.24,15.24,15.24,0,0,0-5.78,9.47,5.92,5.92,0,0,0-.15,2.29,2,2,0,0,0,2.17,1.49,9.3,9.3,0,0,0,4.17-1c1.11-.54,2-1.43,3.13-2a7.85,7.85,0,0,1,1.6-.38,5,5,0,0,0,2-.76,3.41,3.41,0,0,0,1.35-1.79A4.89,4.89,0,0,0,96.51,39.27Z"/><path class="cls-1" d="M73.44,40.62c-.35-.67-.73-1.32-1.07-2a13,13,0,0,1-.71-1.91,2.89,2.89,0,0,0-2-2.08,2.23,2.23,0,0,0-.36-.05,1.62,1.62,0,0,0-1.43-.91,7.32,7.32,0,0,0-6.78,4.9c-.58,1.59-.56,3.62.75,4.83,1.1,1,2.7,1.18,4,1.71l.79.36,1,.48c.79.38,1.58.75,2.39,1.08a7.52,7.52,0,0,0,2.31.65,2.21,2.21,0,0,0,2.27-2.22A8.59,8.59,0,0,0,73.44,40.62Z"/><path class="cls-2" d="M71.43,39.22a10.79,10.79,0,0,0-2.27-3.93A3.28,3.28,0,0,0,67,34.46a4.17,4.17,0,0,0-1.27.21,6.22,6.22,0,0,0-3.94,4.14,4.42,4.42,0,0,0,1.16,4.31,10.1,10.1,0,0,0,3.59,1.57l5.53,1.66a1.31,1.31,0,0,0,1.56-1.78Z"/><path class="cls-2" d="M94.65,38.81a6.22,6.22,0,0,0-3.94-4.14,3.39,3.39,0,0,0-3.44.62A10.79,10.79,0,0,0,85,39.22l-.51,1.23-1,2.53-.66,1.59a1.32,1.32,0,0,0,1.57,1.78l1.51-.45,4-1.21a10.1,10.1,0,0,0,3.59-1.57A4.44,4.44,0,0,0,94.65,38.81Z"/><path class="cls-1" d="M144.55,90.83a3.12,3.12,0,0,1-1.38-3c0-1.62,0-3.23,0-4.85-.06-4.48-1.29-5.83-5.67-5.8a3.85,3.85,0,0,1-3.88-2.49c-1.88-3.88-3.8-7.75-5.84-11.54a8.62,8.62,0,0,0-7.53-4.78c-3.89-.16-7.79,0-11.68,0-.92,0-1.47.18-1.75.7a2.73,2.73,0,0,0-.23,1.34c.08,5.36,0,10.72,0,16.08s0,10.72,0,16.08c0,.93-.44,2.28,1.13,2.4a3.71,3.71,0,0,0,2.54-.26,2.45,2.45,0,0,0,.83-1.17,14.08,14.08,0,0,1,2.72-4.4,11.37,11.37,0,0,1,8.65-3.5c5.42,0,9.31,2.67,11.4,7.84A2.16,2.16,0,0,0,136.17,95c2.3-.06,4.61,0,6.92,0a5.07,5.07,0,0,0,1.65,0,.92.92,0,0,0,.55-.74C145.55,93.05,145.9,91.67,144.55,90.83Zm-17.5-15.78a2.93,2.93,0,0,1-2.47,1c-2,0-4,0-6,0h-4.74a2.39,2.39,0,0,1-2.72-2.73c0-2.64,0-5.29,0-7.93A2.68,2.68,0,0,1,112,63.1a2.86,2.86,0,0,1,1.74-.47c2.6,0,4,0,6.55,0a2.71,2.71,0,0,1,2.72,1.67c1.28,2.68,2.65,5.31,3.9,8A2.72,2.72,0,0,1,127.05,75.05Z"/><path class="cls-1" d="M122.13,92.53A5.69,5.69,0,0,0,122,103.9a5.69,5.69,0,0,0,.12-11.37Z"/><path class="cls-2" d="M94.65,38.81a6.22,6.22,0,0,0-3.94-4.14,3.39,3.39,0,0,0-3.44.62A10.79,10.79,0,0,0,85,39.22l-.51,1.23-1,2.53-.66,1.59a1.32,1.32,0,0,0,1.57,1.78l1.51-.45,4-1.21a10.1,10.1,0,0,0,3.59-1.57A4.44,4.44,0,0,0,94.65,38.81Z"/><path class="cls-2" d="M122.13,92.53A5.69,5.69,0,0,0,122,103.9a5.69,5.69,0,0,0,.12-11.37Z"/><path class="cls-2" d="M71.43,39.22a10.79,10.79,0,0,0-2.27-3.93A3.28,3.28,0,0,0,67,34.46a4.17,4.17,0,0,0-1.27.21,6.22,6.22,0,0,0-3.94,4.14,4.42,4.42,0,0,0,1.16,4.31,10.1,10.1,0,0,0,3.59,1.57l5.53,1.66a1.31,1.31,0,0,0,1.56-1.78Z"/><path class="cls-2" d="M144.55,90.83a3.12,3.12,0,0,1-1.38-3c0-1.62,0-3.23,0-4.85-.06-4.48-1.29-5.83-5.67-5.8a3.85,3.85,0,0,1-3.88-2.49c-1.88-3.88-3.8-7.75-5.84-11.54a8.62,8.62,0,0,0-7.53-4.78c-3.89-.16-7.79,0-11.68,0-.92,0-1.47.18-1.75.7a2.73,2.73,0,0,0-.23,1.34c.08,5.36,0,10.72,0,16.08s0,10.72,0,16.08c0,.93-.44,2.28,1.13,2.4a3.71,3.71,0,0,0,2.54-.26,2.45,2.45,0,0,0,.83-1.17,14.08,14.08,0,0,1,2.72-4.4,11.37,11.37,0,0,1,8.65-3.5c5.42,0,9.31,2.67,11.4,7.84A2.16,2.16,0,0,0,136.17,95c2.3-.06,4.61,0,6.92,0a5.07,5.07,0,0,0,1.65,0,.92.92,0,0,0,.55-.74C145.55,93.05,145.9,91.67,144.55,90.83Z"/><path class="cls-3" d="M150,89.16c-1.45-2.45-1.54-4.72-1.63-7.25a10.05,10.05,0,0,0-8.93-10A2.78,2.78,0,0,1,137,70.2c-1.3-2.78-2.71-5.51-4.07-8.25-2.93-5.87-7.67-8.76-14.09-8.83-3.25,0-6.49,0-9.74,0a2.38,2.38,0,0,1-2.16-.72c-2.56-3.24-6-3.83-9.89-3.83H94a9.78,9.78,0,0,0,2.66-1.63,9.52,9.52,0,0,0,2.73-9.39,11.23,11.23,0,0,0-7.21-7.65,8.26,8.26,0,0,0-8.11,1.57,14.58,14.58,0,0,0-3.63,5.82l-2.25,5.47L76,37.28a14.69,14.69,0,0,0-3.63-5.82,8.26,8.26,0,0,0-8.11-1.57A11.23,11.23,0,0,0,57,37.54a9.54,9.54,0,0,0,2.72,9.39,10,10,0,0,0,2.63,1.61l-2.88,0h-.42A19.66,19.66,0,0,0,55.8,49c-4.61,1.21-7.13,4.85-7.14,10.58q0,14,0,28a6.42,6.42,0,0,1-.57,3l0,0A12,12,0,0,0,46,97.38c-.08,6.75,4.85,12,11.31,12.08a11.64,11.64,0,0,0,11.06-7.1c.85-1.37,1.89-1.62,3.54-1.62l23.27.17q6.27,0,12.54.12c1.37,0,2.37.09,3,1.71,2.1,5,6,7.71,11.33,7.67s9.16-2.71,11.27-7.74a2.28,2.28,0,0,1,2.45-1.64c3.1.06,6.21,0,9.31,0,2.14,0,4.12-.71,4.92-2.9C151.14,95.17,151.53,91.71,150,89.16ZM57.49,103.64a6,6,0,1,1,6.11-6A5.94,5.94,0,0,1,57.49,103.64ZM72.06,46.35l-5.53-1.66a10.1,10.1,0,0,1-3.59-1.57,4.42,4.42,0,0,1-1.16-4.31,6.22,6.22,0,0,1,3.94-4.14A4.17,4.17,0,0,1,67,34.46a3.28,3.28,0,0,1,2.17.83,10.79,10.79,0,0,1,2.27,3.93l2.19,5.35A1.31,1.31,0,0,1,72.06,46.35ZM89.9,44.69l-4,1.21-1.51.45a1.32,1.32,0,0,1-1.57-1.78L83.46,43l1-2.53L85,39.22a10.79,10.79,0,0,1,2.27-3.93,3.39,3.39,0,0,1,3.44-.62,6.22,6.22,0,0,1,3.94,4.14,4.44,4.44,0,0,1-1.16,4.31A10.1,10.1,0,0,1,89.9,44.69ZM122,103.9a5.69,5.69,0,0,1,.12-11.37A5.69,5.69,0,0,1,122,103.9Zm23.28-9.69a.92.92,0,0,1-.55.74,5.07,5.07,0,0,1-1.65,0c-2.31.06-4.62,0-6.92,0a2.16,2.16,0,0,1-2.29-1.57c-2.09-5.17-6-7.83-11.4-7.84a11.37,11.37,0,0,0-8.65,3.5,14.08,14.08,0,0,0-2.72,4.4,2.45,2.45,0,0,1-.83,1.17,3.71,3.71,0,0,1-2.54.26c-1.57-.12-1.12-1.47-1.13-2.4,0-5.36,0-10.72,0-16.08s.05-10.72,0-16.08A2.73,2.73,0,0,1,106.8,59c.28-.52.83-.71,1.75-.7,3.89.06,7.79-.11,11.68,0a8.62,8.62,0,0,1,7.53,4.78c2,3.79,4,7.66,5.84,11.54a3.85,3.85,0,0,0,3.88,2.49c4.38,0,5.61,1.32,5.67,5.8,0,1.62,0,3.23,0,4.85a3.12,3.12,0,0,0,1.38,3C145.9,91.67,145.55,93.05,145.29,94.21Z"/><path class="cls-1" d="M57.71,91.57a6,6,0,0,0-.22,12.07,6,6,0,0,0,.22-12.07Z"/><path class="cls-4" d="M123.05,64.31a2.71,2.71,0,0,0-2.72-1.67c-2.6,0-4,0-6.55,0a2.86,2.86,0,0,0-1.74.47,2.68,2.68,0,0,0-.92,2.31c0,2.64,0,5.29,0,7.93a2.39,2.39,0,0,0,2.72,2.73h4.74c2,0,4,0,6,0a2.93,2.93,0,0,0,2.47-1,2.72,2.72,0,0,0-.1-2.73C125.7,69.62,124.33,67,123.05,64.31Z"/><path class="cls-1" d="M78.38,96.22a2.8,2.8,0,0,0,2.78-3c0-1.82,0-34.23,0-36.06s0-3.64,0-5.47a2.74,2.74,0,0,0-2.76-3,2.77,2.77,0,0,0-2.76,2.89c0,3.67,0,37.93,0,41.6A2.85,2.85,0,0,0,78.38,96.22Z"/><path class="cls-1" d="M101.66,71.28a2.81,2.81,0,0,0-2.9-2.84c-1.78,0-33.57,0-35.36,0s-3.58,0-5.37,0A2.82,2.82,0,1,0,58,74.07c3.6,0,37.21,0,40.81,0A2.83,2.83,0,0,0,101.66,71.28Z"/><rect class="cls-2" width="200" height="209.68"/></g></g></svg>