<svg xmlns="http://www.w3.org/2000/svg" viewBox="0 0 200 209.68"><defs><style>.cls-1,.cls-4,.cls-7{fill:none;}.cls-1,.cls-2,.cls-4{stroke:#5b0808;}.cls-1{stroke-linecap:round;}.cls-1,.cls-2,.cls-3,.cls-4{stroke-miterlimit:10;}.cls-2,.cls-6{fill:#fcfcfb;}.cls-2,.cls-4{stroke-width:8px;}.cls-3,.cls-5{fill:#5b0808;}.cls-3{stroke:#fcfcfb;}</style></defs><g id="레이어_2" data-name="레이어 2"><g id="레이어_1-2" data-name="레이어 1"><path class="cls-1" d="M88.75,43.1s18.16-13.65,40,5"/><ellipse class="cls-2" cx="129.97" cy="83.87" rx="31.48" ry="32.1"/><path class="cls-3" d="M136.5,66.57H122.6v0a7.75,7.75,0,0,0-6.82,7.75v40.49h9l-.38-.85V95.51h.38v0H136.5a7.72,7.72,0,0,0,7.61-6.95h0V74.37A7.73,7.73,0,0,0,136.5,66.57Zm-.72,20.1H124.43V75.11h11.35Z"/><ellipse class="cls-4" cx="129.97" cy="83.87" rx="31.48" ry="32.1"/><path class="cls-5" d="M88.89,54.8c9.59,3,10.41-2.74,10.41-2.74,1.54-6.94-6.15-8.9-9.81-9.43,1.16-3.62,2.79-11.38-3.92-13.06,0,0-5.41-1.82-7.06,8.27,0,0-5.2,1.37-5.83,5.59-.51,3.37,2.83,5.77,5.21,6.61-.28,2.56.36,6.55,3.49,7.58C85.37,58.93,88.89,54.8,88.89,54.8Z"/><path class="cls-6" d="M88.32,52c7,2.19,7.59-2,7.59-2,1.13-5.07-4.49-6.5-7.16-6.89.85-2.64,2-8.3-2.86-9.53,0,0-4-1.33-5.15,6,0,0-3.8,1-4.26,4.08-.37,2.46,2.06,4.21,3.8,4.83-.21,1.87.26,4.78,2.55,5.53C85.74,55,88.32,52,88.32,52Z"/><path class="cls-5" d="M76.34,53.29a1.27,1.27,0,0,1-1.72.8,1.58,1.58,0,0,1-.84-1.92,1.26,1.26,0,0,1,1.75-.79A1.58,1.58,0,0,1,76.34,53.29Z"/><path class="cls-5" d="M71.16,61.7a1.43,1.43,0,0,1-1.8,1.1,1.69,1.69,0,0,1-1.12-2,1.43,1.43,0,0,1,1.83-1.09A1.7,1.7,0,0,1,71.16,61.7Z"/><path class="cls-5" d="M74,57.4a1.82,1.82,0,0,1-2.37,1.27A2.19,2.19,0,0,1,70.33,56a1.81,1.81,0,0,1,2.42-1.27A2.22,2.22,0,0,1,74,57.4Z"/><path class="cls-5" d="M70.6,123l1.47-.58c-7.69-16.21-10.24-30.88-8.3-48.11L62.06,74C60.1,91.52,62.73,106.46,70.6,123Z"/><path class="cls-5" d="M75.7,123l1.47-.58C69.63,106.46,67,92,68.78,75.24l-1.71-.33C65.32,92.05,68,106.75,75.7,123Z"/><path class="cls-5" d="M78.28,123.4l1.47-.58c-7.53-15.89-10.12-30.3-8.39-47.09l-1.71-.32C67.9,92.53,70.57,107.21,78.28,123.4Z"/><path class="cls-5" d="M68.91,64.28a4.46,4.46,0,0,0-5.71,3.63c-.4,2.06-.58,3.09-.89,5.15l9.28,1.87c.29-1.85.46-2.77.85-4.61A5.32,5.32,0,0,0,68.91,64.28Z"/><path class="cls-5" d="M73.14,123l1.47-.58C67,106.32,64.43,91.77,66.27,74.76l-1.71-.32C62.71,91.79,65.35,106.6,73.14,123Z"/><rect class="cls-7" width="200" height="209.68"/></g></g></svg>