<svg xmlns="http://www.w3.org/2000/svg" viewBox="0 0 200 209.68"><defs><style>.cls-1{fill:#5b0808;}.cls-2{fill:#fcfcfb;}.cls-3{fill:none;}</style></defs><g id="레이어_2" data-name="레이어 2"><g id="레이어_1-2" data-name="레이어 1"><rect class="cls-1" x="64.18" y="42.73" width="65.87" height="12.28"/><rect class="cls-2" x="60.57" y="59.71" width="72.69" height="48.17"/><ellipse class="cls-2" cx="131.8" cy="106.24" rx="20.64" ry="21.04"/><path class="cls-1" d="M143.51,84h0Z"/><polygon class="cls-1" points="143.49 83.98 143.49 83.99 143.49 83.99 143.49 83.98"/><path class="cls-1" d="M62.51,62.76c0-.84.29-1.13,1.09-1.13,10,0,55.24,0,67,0,1.26,0,1.31,0,1.31,1.34,0,3.45,0,16.31,0,19.76,0,.84.24,1.14,1.08,1.09a38.43,38.43,0,0,1,3.87,0c.83,0,1.09-.24,1.08-1.08,0-6,0-32.74-.4-34.8a6.47,6.47,0,0,0-5.4-5c-.81-.1-1.61-.13-2.42-.16-.58,0-.79.22-.79.81a14.63,14.63,0,0,1-.22,3.73,6.54,6.54,0,0,1-12.93-1.61c0-.64,0-1.28,0-1.92.08-.84-.3-1-1-1-2.55,0-25.79,0-34.87,0-1.13,0-1.15,0-1.13,1.18a9.24,9.24,0,0,1-1,5.21,6.28,6.28,0,0,1-6,3.26A6.45,6.45,0,0,1,66,48.24a10.12,10.12,0,0,1-.53-4.5c0-.75-.19-1-.95-1A9.12,9.12,0,0,0,58.8,44.4c-2,1.71-2.28,4-2.28,6.48q0,10.57,0,21.15c0,10.5.08,33.21.06,34.06a6.73,6.73,0,0,0,6.88,6.7l44.8.19c1.32-.08,1.32-.08,1.32-1.44V108c0-1.39,0-1.39-1.41-1.39H63.58a.86.86,0,0,1-.93-.9C62.64,103.05,62.53,74.16,62.51,62.76Z"/><path class="cls-1" d="M68.13,101.25c1.92,0,3.84,0,5.76,0s3.91,0,5.86,0c.66,0,.9-.25.9-.92,0-3.89,0-7.77,0-11.65,0-.86-.31-1.13-1.14-1.13-3.71,0-7.43,0-11.14,0-.9,0-1.24.25-1.23,1.22,0,3.82,0,7.64,0,11.45C67.13,101,67.38,101.26,68.13,101.25Z"/><path class="cls-1" d="M88.24,101.25c3.87,0,7.75,0,11.62,0,.7,0,1-.25,1-1q0-5.77,0-11.55c0-.84-.28-1.17-1.12-1.16q-5.67,0-11.34,0c-.76,0-1,.29-1,1,0,1.93,0,3.86,0,5.78h0c0,2,0,4,0,6C87.34,101,87.58,101.25,88.24,101.25Z"/><path class="cls-1" d="M119.91,67q-5.66,0-11.33,0c-.78,0-1.08.25-1.07,1.07q0,5.73,0,11.46c0,.83.25,1.17,1.1,1.15,1.86,0,3.71,0,5.57,0s3.78,0,5.67,0c.83,0,1.13-.28,1.12-1.13q0-5.73,0-11.46C121,67.33,120.71,67,119.91,67Z"/><path class="cls-1" d="M68.23,80.72q5.67,0,11.34,0c.78,0,1.08-.26,1.08-1.08q0-5.77,0-11.55c0-.84-.34-1.07-1.1-1-1.86,0-3.71,0-5.57,0s-3.84,0-5.76,0c-.77,0-1.09.23-1.08,1.07q0,5.72,0,11.45C67.13,80.4,67.38,80.72,68.23,80.72Z"/><path class="cls-1" d="M99.71,67q-5.67,0-11.35,0c-.75,0-1,.25-1,1,0,3.89,0,7.77,0,11.66,0,.77.27,1,1,1,1.86,0,3.72,0,5.58,0s3.84,0,5.77,0c.84,0,1.11-.33,1.1-1.17,0-3.79,0-7.57,0-11.36C100.83,67.33,100.54,67,99.71,67Z"/><path class="cls-2" d="M73,50.84a5.11,5.11,0,0,1-5-5.24c0-4.34,0-8.57,0-12.56a5.07,5.07,0,1,1,10.13.07q0,2.18,0,4.35v3.76c0,1.46,0,2.91,0,4.37A5.07,5.07,0,0,1,73,50.84Z"/><path class="cls-1" d="M73,29.76a3.14,3.14,0,0,1,3.14,3.37c0,2.07,0,4.14,0,6.22s0,4.15,0,6.22A3.19,3.19,0,0,1,73,48.92h0a3.21,3.21,0,0,1-3.12-3.33q0-6.27,0-12.54A3.16,3.16,0,0,1,73,29.76h0m0-3.84h0A7,7,0,0,0,66,33c0,4,0,8.23,0,12.58a7,7,0,1,0,14,0q0-2.19,0-4.38V37.46c0-1.46,0-2.91,0-4.36a7,7,0,0,0-7-7.18Z"/><path class="cls-2" d="M121.46,50.72a4.94,4.94,0,0,1-4.93-5.12c0-4.3,0-8.53,0-12.58a4.78,4.78,0,0,1,4.91-5,4.9,4.9,0,0,1,5,5.08c0,1.42,0,2.84,0,4.25v3.75c0,1.5,0,3,0,4.49a5,5,0,0,1-4.84,5.16Z"/><path class="cls-1" d="M121.44,29.91h0a2.94,2.94,0,0,1,3,3.17c0,2.08,0,4.16,0,6.23s0,4.16,0,6.23a3.07,3.07,0,0,1-3,3.26h-.06a3,3,0,0,1-3-3.21q0-6.29,0-12.55a2.89,2.89,0,0,1,3-3.13m0-3.84A6.69,6.69,0,0,0,114.61,33c0,4.07,0,8.31,0,12.6a6.82,6.82,0,0,0,6.85,7h.12a7,7,0,0,0,6.73-7.07c0-1.49,0-3,0-4.47V37.35c0-1.43,0-2.87,0-4.3a6.75,6.75,0,0,0-6.8-7h-.07Z"/><path class="cls-1" d="M154.05,95a24.36,24.36,0,0,0-5.15-7,25.92,25.92,0,0,0-5.55-4,25.29,25.29,0,0,0-3.69-1.64A24.05,24.05,0,0,0,129,81.1a23.62,23.62,0,0,0-10,3.57,26.49,26.49,0,0,0-7.73,7.48,24.78,24.78,0,0,0-4,10c-1.73,10.48,3.8,21.78,13,26.69a25.19,25.19,0,0,0,28.93-4.4A26.46,26.46,0,0,0,154.05,95Zm-8.93,25.37a19.41,19.41,0,0,1-22.28,3.22,19.59,19.59,0,0,1-1.13-33.71,18.19,18.19,0,0,1,15.41-2.18,20.33,20.33,0,0,1,7.22,4A18.85,18.85,0,0,1,149,97.77,20.35,20.35,0,0,1,145.12,120.36Z"/><path class="cls-1" d="M140.48,100.53q-5.1,5.16-10.16,10.37c-.54.57-.89.61-1.45,0-1.91-2-3.86-3.93-5.79-5.89a3.18,3.18,0,0,0-2.46-1.08,2.5,2.5,0,0,0-1.07.2,3.13,3.13,0,0,0-1.11,5.12c2.78,2.91,5.61,5.77,8.43,8.63,1.94,2,3.47,2,5.4,0q5.16-5.24,10.3-10.49c.93-1,1.9-1.87,2.76-2.88a3.09,3.09,0,0,0-.16-4.16C143.84,99,142,99,140.48,100.53Z"/><rect class="cls-3" width="200" height="209.68"/></g></g></svg>