<?xml version="1.0" encoding="utf-8"?>
<!-- Generator: Adobe Illustrator 24.1.2, SVG Export Plug-In . SVG Version: 6.00 Build 0)  -->
<svg version="1.1" id="레이어_1" xmlns="http://www.w3.org/2000/svg" xmlns:xlink="http://www.w3.org/1999/xlink" x="0px"
	 y="0px" viewBox="0 0 59.5 55" style="enable-background:new 0 0 59.5 55;" xml:space="preserve">
<style type="text/css">
	.st0{enable-background:new    ;}
	.st1{fill:#333333;}
	.st2{fill:none;stroke:#333333;stroke-width:2;stroke-linecap:round;stroke-linejoin:round;}
	.st3{fill:none;stroke:#333333;stroke-width:2;stroke-miterlimit:10;}
	.st4{fill:none;}
</style>
<g id="레이어_2_1_">
	<g id="kimAca">
		<g class="st0">
			<path class="st1" d="M21.2,49.1c-0.6,0.6-1.4,0.9-2.4,0.9c-0.8,0-1.4-0.2-2.1-0.7c-0.6-0.4-1-1.1-1.2-2.1
				c-0.1-0.7-0.2-1.4-0.2-2.2c0-0.7,0.1-1.5,0.2-2.1c0.2-1,0.6-1.7,1.3-2.1c0.7-0.4,1.3-0.6,2-0.6c0.9,0,1.7,0.3,2.3,0.8
				c0.6,0.5,1,1.3,1.1,2.3H20c0-0.4-0.2-0.7-0.4-1c-0.2-0.2-0.5-0.4-0.7-0.4c-0.4,0-0.7,0.3-1,0.8c-0.2,0.5-0.3,1.3-0.3,2.4
				c0,1.2,0.1,2,0.3,2.5c0.2,0.5,0.5,0.7,1,0.7c0.2,0,0.4-0.1,0.7-0.3c0.2-0.2,0.4-0.6,0.4-1h2.3C22.2,47.8,21.9,48.5,21.2,49.1z"/>
			<path class="st1" d="M28.1,49.8l-0.5-1.7h-2.5l-0.5,1.7h-2.3l3.2-9.5h1.8l3.2,9.5H28.1z M26.4,43.7c0,0.1,0,0.1-0.1,0.2
				s0,0.2-0.1,0.3l-0.7,2.3h1.6l-0.7-2.3c0-0.1,0-0.1,0-0.3C26.4,43.8,26.4,43.7,26.4,43.7z"/>
			<path class="st1" d="M30.9,49.8v-9.5h3.7c1,0,1.7,0.3,2.3,0.8c0.5,0.6,0.8,1.3,0.8,2.1c0,0.7-0.2,1.3-0.6,1.7
				c-0.4,0.5-0.8,0.7-1.2,0.8c0.2,0.2,0.4,0.4,0.6,0.5c0.1,0.2,0.2,0.4,0.3,0.6c0.2,0.5,0.4,1.1,0.6,1.6c0.2,0.6,0.4,1,0.7,1.3h-2.4
				c-0.3-0.3-0.5-0.7-0.6-1.3c-0.1-0.6-0.3-1.1-0.4-1.6c-0.1-0.2-0.2-0.4-0.3-0.6c-0.1-0.2-0.2-0.3-0.3-0.3h-0.7v3
				c0,0.2-0.1,0.4-0.3,0.6c-0.2,0.1-0.4,0.2-0.6,0.2H30.9z M35.4,43.2c0-0.4-0.1-0.7-0.3-0.9c-0.2-0.2-0.4-0.3-0.7-0.3h-1.3v2.4h1.3
				c0.3,0,0.5-0.1,0.7-0.3C35.3,43.9,35.4,43.6,35.4,43.2z"/>
			<path class="st1" d="M40.4,49.8V42h-1.6c-0.2,0-0.4,0-0.5-0.1c-0.1-0.1-0.2-0.2-0.2-0.5v-1.1h6.8v1.1c0,0.2-0.1,0.4-0.2,0.5
				C44.7,42,44.5,42,44.3,42h-1.6v7c0,0.2-0.1,0.4-0.3,0.6c-0.2,0.1-0.4,0.2-0.6,0.2H40.4z"/>
		</g>
		<polyline class="st2" points="12.6,8 16.9,8.2 19,30.4 37,30.4 		"/>
		<polyline class="st2" points="17.5,13.6 40.4,14.6 39.8,25.9 18.7,25.7 		"/>
		<circle class="st3" cx="19.5" cy="33.1" r="2.6"/>
		<circle class="st3" cx="37.5" cy="33.1" r="2.6"/>
		<rect class="st4" width="59.5" height="55"/>
	</g>
</g>
</svg>
