<?xml version="1.0" encoding="utf-8"?>
<!-- Generator: Adobe Illustrator 24.1.2, SVG Export Plug-In . SVG Version: 6.00 Build 0)  -->
<svg version="1.1" id="레이어_1" xmlns="http://www.w3.org/2000/svg" xmlns:xlink="http://www.w3.org/1999/xlink" x="0px"
	 y="0px" viewBox="0 0 54.4 55" style="enable-background:new 0 0 54.4 55;" xml:space="preserve">
<style type="text/css">
	.st0{fill:#333333;}
	.st1{enable-background:new    ;}
	.st2{fill:none;}
</style>
<g id="레이어_2_1_">
	<g id="kimAca">
		<path class="st0" d="M37.5,30.3L37.5,30.3c-0.2-2.6-1.3-5.1-3.2-6.9l-0.1-0.1c-1.2-1.1-2.6-2-4.1-2.5c3.3-1.8,4.6-6,2.7-9.4
			c-1.8-3.3-6-4.6-9.4-2.7s-4.6,6-2.7,9.4c0.6,1.2,1.6,2.1,2.7,2.7c-1.5,0.5-3,1.3-4.1,2.5c0,0,0,0.1-0.1,0.1
			c-1.9,1.8-3.1,4.3-3.3,6.9l0,0v3.6c0,0.5,0.4,0.9,0.9,0.9s0.9-0.4,0.9-0.9v-1.8l0,0v-1.1c0-4.2,3-7.9,7.1-8.7l0,0
			c0.3-0.1,0.6-0.1,0.8-0.1h0.1c0.6-0.1,1.2-0.1,1.8,0h0.1c0.3,0,0.6,0.1,0.8,0.1l0,0c4.1,0.9,7.1,4.5,7.1,8.8v2.8
			c0,0.5,0.4,0.9,0.9,0.9s0.9-0.4,0.9-0.9L37.5,30.3L37.5,30.3z M21.7,14.8c0-2.8,2.2-5,5-5s5,2.2,5,5s-2.2,5-5,5
			S21.7,17.6,21.7,14.8z"/>
		<g class="st1">
			<path class="st0" d="M16.7,49.6c-0.1,0.1-0.3,0.2-0.6,0.2h-4.6c-0.2,0-0.4-0.1-0.6-0.2s-0.2-0.3-0.2-0.6v-8.8H13v7.8h3.9v1
				C16.9,49.3,16.9,49.5,16.7,49.6z"/>
			<path class="st0" d="M24.3,43.4c0,0.5,0.1,1.1,0.1,1.6s0,1.1-0.1,1.7c-0.1,1-0.4,1.7-0.9,2.3S21.9,50,20.9,50
				c-0.9,0-1.7-0.3-2.3-0.9c-0.6-0.6-1-1.4-1-2.4c0-0.5,0-1.1,0-1.7s0-1.1,0-1.6c0.1-1,0.4-1.7,1-2.4c0.6-0.6,1.4-0.9,2.4-0.9
				c1,0,1.8,0.3,2.4,0.9S24.2,42.5,24.3,43.4z M22.1,46.5c0-0.5,0-1,0-1.5c0-0.6,0-1,0-1.4c0-0.5-0.1-0.9-0.3-1.2
				c-0.2-0.4-0.5-0.5-0.9-0.5c-0.3,0-0.6,0.2-0.8,0.5c-0.2,0.3-0.3,0.7-0.4,1.3c0,0.4,0,0.9,0,1.5c0,0.6,0,1.1,0,1.4
				c0,0.5,0.2,1,0.4,1.3c0.2,0.3,0.5,0.5,0.8,0.5c0.4,0,0.6-0.1,0.8-0.4S22,47.1,22.1,46.5z"/>
			<path class="st0" d="M28.4,44.5h3.8V46c0,1.4-0.3,2.4-0.9,3c-0.6,0.6-1.5,0.9-2.7,0.9c-0.8,0-1.6-0.3-2.2-0.8
				c-0.6-0.5-1-1.2-1.1-2.2c-0.1-0.5-0.1-1.2-0.2-1.9s0-1.4,0.1-2c0.2-0.9,0.6-1.7,1.2-2.2c0.6-0.5,1.4-0.8,2.2-0.8
				c0.9,0,1.7,0.3,2.4,0.9c0.7,0.6,1,1.3,1.1,2.2H30c-0.1-0.4-0.2-0.8-0.5-1s-0.5-0.4-0.8-0.4S28.2,42,28,42.3
				c-0.3,0.3-0.4,0.7-0.5,1.3c0,0.4-0.1,0.9,0,1.5s0,1.1,0.1,1.4c0.1,0.5,0.2,0.9,0.4,1.3c0.2,0.3,0.5,0.5,0.8,0.5
				c0.4,0,0.7-0.1,1-0.4c0.2-0.3,0.3-0.7,0.3-1.3v-0.4h-0.9c-0.2,0-0.4,0-0.5-0.1c-0.1-0.1-0.2-0.2-0.2-0.5V44.5z"/>
			<path class="st0" d="M33.4,40.3h2.2v8.8c0,0.2-0.1,0.4-0.3,0.6c-0.2,0.1-0.4,0.2-0.6,0.2h-1.4V40.3z"/>
			<path class="st0" d="M42.2,49.8l-2.8-5c0,0,0-0.1-0.1-0.3s-0.1-0.2-0.1-0.3c0,0.1,0,0.2,0,0.3c0,0.2,0,0.2,0,0.3v4.1
				c0,0.2-0.1,0.4-0.3,0.6c-0.2,0.1-0.4,0.2-0.6,0.2h-1.4v-9.5h2l2.7,4.9c0,0,0.1,0.1,0.1,0.3c0,0.1,0.1,0.2,0.1,0.3
				c0-0.1,0-0.2,0-0.3s0-0.2,0-0.3v-4.8h2.2v8.8c0,0.2-0.1,0.4-0.3,0.6c-0.2,0.1-0.4,0.2-0.6,0.2H42.2z"/>
		</g>
		<rect class="st2" width="54.4" height="55"/>
	</g>
</g>
</svg>
