<svg xmlns="http://www.w3.org/2000/svg" xmlns:xlink="http://www.w3.org/1999/xlink" viewBox="0 0 254.74 89.97"><defs><style>.cls-1{fill:none;}.cls-2{clip-path:url(#clip-path);}.cls-3{fill:url(#무제_그라디언트_2);}.cls-4{clip-path:url(#clip-path-2);}.cls-5{fill:url(#무제_그라디언트_2-2);}</style><clipPath id="clip-path"><path id="SVGID" class="cls-1" d="M144.13,3.94c-.55.5-1.07,1.14-1.81,1.24a4.46,4.46,0,0,1-1.2-.13A3.58,3.58,0,0,0,137,8.19a4.14,4.14,0,0,1-.18,1.22,2.09,2.09,0,0,1-1,1c-.84.48-1.9.79-2.16,1.69a10,10,0,0,1,3.56,3.63,1.54,1.54,0,0,0,.53.65,1.65,1.65,0,0,0,.7.13A6.2,6.2,0,0,1,144,22a1.51,1.51,0,0,0,.17.73,1.44,1.44,0,0,0,.67.46,7.67,7.67,0,0,0,4.14.85,6.14,6.14,0,0,0,2.27-1,1.77,1.77,0,0,0,.56-.53,2.27,2.27,0,0,0,.24-.9,6.13,6.13,0,0,1,5.51-5.07,1.54,1.54,0,0,0,.9-.23,1.43,1.43,0,0,0,.33-.47,9.49,9.49,0,0,1,3.62-3.71c-.45-1.26-2.36-1.32-3.05-2.46a6.27,6.27,0,0,1-.47-2A3.43,3.43,0,0,0,155.58,5a8.58,8.58,0,0,1-2,.07,5.6,5.6,0,0,1-2.08-1.39A5.62,5.62,0,0,0,148,2.53a5.73,5.73,0,0,0-3.84,1.41"/></clipPath><linearGradient id="무제_그라디언트_2" x1="-794.45" y1="99.73" x2="-794.01" y2="99.73" gradientTransform="matrix(0, -253.17, -253.17, 0, 25396.65, -201032.53)" gradientUnits="userSpaceOnUse"><stop offset="0" stop-color="#fbed21"/><stop offset="0" stop-color="#fbed21"/><stop offset="0.1" stop-color="#fbea21"/><stop offset="0.18" stop-color="#fae021"/><stop offset="0.26" stop-color="#f9cf21"/><stop offset="0.33" stop-color="#f7b722"/><stop offset="0.4" stop-color="#f59822"/><stop offset="0.46" stop-color="#f27223"/><stop offset="0.53" stop-color="#ef4623"/><stop offset="0.58" stop-color="#ec1c24"/><stop offset="0.67" stop-color="#e81a22"/><stop offset="0.78" stop-color="#db151b"/><stop offset="0.89" stop-color="#c60d10"/><stop offset="0.99" stop-color="#a80101"/><stop offset="1" stop-color="#a60000"/></linearGradient><clipPath id="clip-path-2"><path id="SVGID-2" data-name="SVGID" class="cls-1" d="M157.26,80.53A11.52,11.52,0,0,1,150,74.18c-3.56-7.39,0-20.17,9.84-19.71a11.06,11.06,0,0,1,7.86,4.12c.06.09.13.17.19.25a14.48,14.48,0,0,1,2.85,8.84,14.08,14.08,0,0,1-3.71,9.8,10.83,10.83,0,0,1-7.62,3.31,8.88,8.88,0,0,1-2.17-.26m-30.1-5.37a15.37,15.37,0,0,1-1.66-10.73c.76-4.05,3.11-8.07,6.94-9.59a10.06,10.06,0,0,1,8.57.73c6.26,3.58,7.75,12.35,4.73,18.54a12.52,12.52,0,0,1-1.73,2.6,10.66,10.66,0,0,1-7.7,3.83h-.14a10.9,10.9,0,0,1-9-5.38m34.37-41.5a5.78,5.78,0,0,0,.06-2.55c-.41-1.68-1.94-2.81-2.9-4.24a2.64,2.64,0,0,1-.56-1.51,1.25,1.25,0,0,1,.88-1.22c.74-.16,1.34.54,1.76,1.17l2.28,3.37a1.05,1.05,0,0,0,.46.45,1.07,1.07,0,0,0,.91-.28l3.12-2.21a2.5,2.5,0,0,1,1.74-.66,1.18,1.18,0,0,1,.88,1.25,2.28,2.28,0,0,1-1.1,1.44c-.8.58-1.62,1.12-2.46,1.63a6.1,6.1,0,0,0-2.09,1.7,5.74,5.74,0,0,0-.65,1.82c-.32,1.39-.63,2.78-1,4.17l2.7-1.49a2.44,2.44,0,0,1,1.32-.41,1.24,1.24,0,0,1,.87,1.81,2.5,2.5,0,0,1-1.2.8A18.27,18.27,0,0,0,161,42.54c-1.93,1.93-3.5,4.34-5.92,5.59a2,2,0,0,1-.18-2.16,1.55,1.55,0,0,1,.12-.22,8.16,8.16,0,0,1,1.31-1.57,22.06,22.06,0,0,0,2.5-3.12,1.24,1.24,0,0,0,.27-.73,1.16,1.16,0,0,0-.21-.5l-2.16-3.64a3.69,3.69,0,0,1-.6-1.47,1.23,1.23,0,0,1,.7-1.3,1.21,1.21,0,0,1,1.13.27,3.58,3.58,0,0,1,.74.94c.56.92,1.1,1.84,1.64,2.77a16.4,16.4,0,0,0,1.23-3.74m-29.92-6.32a1.06,1.06,0,0,0,.43-.48l2-3.54c.37-.65.92-1.4,1.66-1.3a1.25,1.25,0,0,1,1,1.16,2.75,2.75,0,0,1-.44,1.54c-.86,1.5-2.29,2.75-2.57,4.45a5.8,5.8,0,0,0,.25,2.54,16.51,16.51,0,0,0,1.52,3.63c.46-1,.93-1.92,1.42-2.88a3.55,3.55,0,0,1,.66-1,1.09,1.09,0,0,1,1.91.89,3.63,3.63,0,0,1-.49,1.51c-.62,1.26-1.25,2.53-1.88,3.79a1.26,1.26,0,0,0-.16.52,1.16,1.16,0,0,0,.32.71A22.17,22.17,0,0,0,140,41.8a8.23,8.23,0,0,1,1.43,1.46,2.39,2.39,0,0,1,.13.21,2,2,0,0,1,0,2.17c-2.51-1.06-4.25-3.35-6.33-5.12a18.31,18.31,0,0,0-5.92-3.4,2.58,2.58,0,0,1-1.25-.7,1.23,1.23,0,0,1,.73-1.87,2.29,2.29,0,0,1,1.34.31l2.81,1.27c-.43-1.36-.85-2.72-1.27-4.08a5.43,5.43,0,0,0-.79-1.77,6.05,6.05,0,0,0-2.21-1.53c-.88-.44-1.74-.93-2.58-1.44A2.32,2.32,0,0,1,124.83,26a1.19,1.19,0,0,1,.79-1.32,2.52,2.52,0,0,1,1.78.53l3.28,2a1.47,1.47,0,0,0,.7.26.59.59,0,0,0,.23-.05m34.75-13.73a6.08,6.08,0,0,0-5.22,3.27c-.38.75-.67,1.65-1.43,2a2.9,2.9,0,0,1-1.44.16c-.21,0-.43,0-.64,0a3.53,3.53,0,0,0-3.21,3.88,3.46,3.46,0,0,1,.12,1.35c-.27,1.1-1.74,1.2-2.86,1.39a5.88,5.88,0,0,0-4.71,5.4c-.08,2.07.95,4,1.64,6a18.16,18.16,0,0,1-1.68,15.29,2,2,0,0,1-1.06-2,7.92,7.92,0,0,1,.69-2.35,13.81,13.81,0,0,0,.51-7.77c-.54-2.38-1.71-4.58-2.27-7s-.36-5.18,1.42-6.85l-3.64-1.13a1.82,1.82,0,0,1-.87-.45c-.47-.53-.21-1.34-.14-2.05a3.45,3.45,0,0,0-3-3.62,6,6,0,0,0-.74,0,3.61,3.61,0,0,1-1.35-.16c-1-.41-1.41-1.58-2-2.5-3.05-4.92-11.42-2.56-11.09,3.36a4.5,4.5,0,0,1-.13,2.37c-.4.72-1.27,1-1.93,1.5a3.71,3.71,0,0,0-.61,5.19,2.5,2.5,0,0,1,.77,1.18c.08.75-.71,1.25-1.33,1.69a6.1,6.1,0,0,0,4.87,10.93,4.63,4.63,0,0,1,2.13-.27,2.55,2.55,0,0,1,1.21.81c1.94,2.14,1.78,5.53.59,8.17s-3.18,4.81-4.76,7.23a21.36,21.36,0,0,0-3.6,12.07,16.14,16.14,0,0,0,5,11.38c3.14,2.85,7.38,4.15,11.56,4.91a59.69,59.69,0,0,0,21,0c4.24-.74,8.56-2,11.76-4.89A16.12,16.12,0,0,0,175,70.66a21.14,21.14,0,0,0-3.61-12.11c-1.59-2.43-3.63-4.61-4.78-7.28s-1.18-6.14.94-8.14a2.83,2.83,0,0,1,1.27-.74,5.77,5.77,0,0,1,2.32.26,6.26,6.26,0,0,0,6.54-3.3l.09-.2A6.24,6.24,0,0,0,176,31.89c-.61-.47-1.36-.92-1.44-1.68-.11-.94.9-1.58,1.33-2.43a3.27,3.27,0,0,0-.38-3c-.54-.91-1.3-1.68-1.82-2.61-.94-1.69-1-3.76-2-5.45a6.09,6.09,0,0,0-5.23-3.08h-.1"/></clipPath><linearGradient id="무제_그라디언트_2-2" x1="-794.45" y1="99.73" x2="-794.01" y2="99.73" gradientTransform="matrix(0, -253.17, -253.17, 0, 25396.62, -201032.53)" xlink:href="#무제_그라디언트_2"/></defs><g id="레이어_2" data-name="레이어 2"><g id="레이어_1-2" data-name="레이어 1"><path d="M18.53,40.46C7.45,40.46,0,47.9,0,59S7.45,77.52,18.53,77.52,37.06,70.07,37.06,59,29.61,40.46,18.53,40.46m0,28.45c-5.62,0-9.4-4-9.4-9.92s3.78-9.93,9.4-9.93,9.4,4,9.4,9.93-3.78,9.92-9.4,9.92"/><polygon points="57.52 54.86 48.33 41.51 40.05 41.51 40.05 76.46 49.7 76.46 49.54 58.03 57.52 69.09 65.51 58.03 65.34 76.46 75 76.46 75 41.51 66.71 41.51 57.52 54.86"/><path d="M93.27,55.21v7.55h4.21v5.68H97c-.54,0-1.28,0-1.89-.06-4.8-.55-8-4.33-8-9.39,0-5.46,3.35-9.23,8.33-9.4H96a16.11,16.11,0,0,1,7.46,1.76V42a23.83,23.83,0,0,0-6.93-1C85.43,41,78,48.22,78,59s7.44,18,18.53,18a24.51,24.51,0,0,0,9.57-2.21V55.21Z"/><g class="cls-2"><rect class="cls-3" x="133.59" y="2.53" width="28.81" height="21.78"/></g><g class="cls-4"><rect class="cls-5" x="117.02" y="11.48" width="61.88" height="76.7"/></g><path d="M177.89,29a6,6,0,0,0-2-7.53,1.77,1.77,0,0,1-.85-1.71c0-4-2.75-7.76-6.6-8.32-2.31-.35-4.29-.83-6-2.57a3.84,3.84,0,0,1-1.18-1.74A6,6,0,0,0,155,2.53,2,2,0,0,1,153.42,2a8.36,8.36,0,0,0-10.84,0,2.37,2.37,0,0,1-1.77.55c-2.42-.11-4.56.83-5.46,3a12.37,12.37,0,0,1-3.57,4.76c-.64.55-1.09,1.13-1.9.83a8.62,8.62,0,0,0-9,8.6,1.9,1.9,0,0,1-.93,1.8A6,6,0,0,0,118,29c.3.65.34,1-.23,1.54a8.58,8.58,0,0,0,7.84,14.53,1.46,1.46,0,0,1,1.26.17,6.91,6.91,0,0,1,0,5.94,11.5,11.5,0,0,1-2,2.59,18.17,18.17,0,0,0-1.71,2c-4.53,6.27-6.75,17-1.94,24.46,4.16,6.47,12.36,9.68,25.05,9.78h3.08c12.69-.1,20.89-3.31,25.05-9.78,4.81-7.49,2.59-18.19-1.94-24.46a18.17,18.17,0,0,0-1.71-2,11.5,11.5,0,0,1-2-2.59,6.89,6.89,0,0,1-.11-5.61,1.64,1.64,0,0,1,1.74-.49,8.58,8.58,0,0,0,7.75-14.59,1,1,0,0,1-.24-1.43M135.75,10.42a2.09,2.09,0,0,0,1-1A4.14,4.14,0,0,0,137,8.19a3.58,3.58,0,0,1,4.17-3.14,4.46,4.46,0,0,0,1.2.13c.74-.1,1.26-.74,1.81-1.24a5.9,5.9,0,0,1,7.35-.24,5.6,5.6,0,0,0,2.08,1.39,8.58,8.58,0,0,0,2-.07,3.43,3.43,0,0,1,3.3,2.59,6.27,6.27,0,0,0,.47,2c.69,1.14,2.6,1.2,3.05,2.46a9.49,9.49,0,0,0-3.62,3.71,1.43,1.43,0,0,1-.33.47,1.54,1.54,0,0,1-.9.23A6.13,6.13,0,0,0,152,21.59a2.44,2.44,0,0,1-.23.9,1.92,1.92,0,0,1-.57.53,6.14,6.14,0,0,1-2.27,1,7.58,7.58,0,0,1-4.14-.85,1.44,1.44,0,0,1-.67-.46A1.51,1.51,0,0,1,144,22a6.19,6.19,0,0,0-5.61-5.49,1.65,1.65,0,0,1-.7-.13,1.54,1.54,0,0,1-.53-.65,10,10,0,0,0-3.56-3.63c.26-.9,1.32-1.21,2.16-1.69M177.8,39.15l-.09.2a6.26,6.26,0,0,1-6.54,3.3,5.77,5.77,0,0,0-2.32-.26,2.83,2.83,0,0,0-1.27.74c-2.12,2-2.09,5.46-.94,8.14s3.19,4.85,4.78,7.28A21.14,21.14,0,0,1,175,70.66a16.12,16.12,0,0,1-5.09,11.41c-3.2,2.88-7.52,4.15-11.76,4.89a59.69,59.69,0,0,1-21,0c-4.18-.76-8.42-2.06-11.56-4.91a16.15,16.15,0,0,1-5-11.38,21.36,21.36,0,0,1,3.6-12.07c1.58-2.42,3.58-4.59,4.76-7.23s1.35-6-.59-8.17a2.55,2.55,0,0,0-1.21-.81,4.63,4.63,0,0,0-2.13.27,6.11,6.11,0,0,1-4.87-10.94c.62-.43,1.41-.93,1.33-1.68a2.5,2.5,0,0,0-.77-1.18,3.71,3.71,0,0,1,.61-5.19c.66-.48,1.53-.78,1.93-1.5a4.5,4.5,0,0,0,.13-2.37c-.33-5.92,8-8.28,11.09-3.36.57.92,1,2.09,2,2.5a8.06,8.06,0,0,0,2.09.19,3.45,3.45,0,0,1,3,3.62c-.07.71-.33,1.52.14,2.05a1.82,1.82,0,0,0,.87.45l3.64,1.13c-1.78,1.67-2,4.47-1.42,6.85s1.73,4.58,2.27,7a13.81,13.81,0,0,1-.51,7.77,7.92,7.92,0,0,0-.69,2.35,2,2,0,0,0,1.06,2A18.16,18.16,0,0,0,148.61,37c-.68-2-1.72-3.88-1.64-6a5.88,5.88,0,0,1,4.71-5.4c1.12-.19,2.59-.29,2.86-1.39a3.46,3.46,0,0,0-.12-1.35,3.53,3.53,0,0,1,3.21-3.88,5.32,5.32,0,0,0,2.08-.15c.76-.37,1-1.27,1.43-2a6,6,0,0,1,10.55-.19c.94,1.69,1,3.76,2,5.45.52.93,1.28,1.7,1.82,2.61a3.27,3.27,0,0,1,.38,3c-.43.85-1.44,1.49-1.33,2.43.08.76.83,1.22,1.44,1.68a6.24,6.24,0,0,1,1.84,7.26"/><path d="M150,74.18a11.52,11.52,0,0,0,7.24,6.35,10.49,10.49,0,0,0,9.8-3,14.12,14.12,0,0,0,3.7-9.8,14.48,14.48,0,0,0-2.85-8.84c-.06-.08-.13-.16-.19-.25a11.06,11.06,0,0,0-7.86-4.12C150,54,146.46,66.79,150,74.18m18.28-6.43c0,5.76-4,10.63-8.61,10.68s-8.67-4.93-8.61-10.9,3.81-10.61,8.54-10.64,8.71,4.93,8.68,10.86"/><path d="M141,55.57a10.06,10.06,0,0,0-8.57-.73c-3.83,1.52-6.18,5.54-6.94,9.59a15.36,15.36,0,0,0,1.66,10.73,10.88,10.88,0,0,0,9.15,5.38,10.66,10.66,0,0,0,7.7-3.83,12.52,12.52,0,0,0,1.73-2.6c3-6.19,1.53-15-4.73-18.54m3.73,13.68a16.08,16.08,0,0,1-.5,1.93c-1.31,4.23-4.43,6.87-8.09,6.87s-7-2.81-8.13-7.14a27.78,27.78,0,0,1-.52-2.85c-.08-7.14,4.71-12.21,10.11-11.22,4.57.84,8.16,7.07,7.13,12.41"/><path d="M158.56,67.27a2.46,2.46,0,0,0-1.12,4.5,2.36,2.36,0,0,0,2.54-.09,2.54,2.54,0,0,0,.48-3.53,2.26,2.26,0,0,0-1.9-.88"/><path d="M135.47,71.16a2.41,2.41,0,0,0,1.74.64,2.36,2.36,0,0,0,1.62-.68,2.47,2.47,0,0,0,0-3.37c-2.18-2.13-5.51,1.27-3.33,3.41"/><path d="M141.51,45.64a2,2,0,0,0,0-2.17,2.39,2.39,0,0,0-.13-.21A8.23,8.23,0,0,0,140,41.8a22.17,22.17,0,0,1-2.73-2.92,1.16,1.16,0,0,1-.32-.71,1.26,1.26,0,0,1,.16-.52c.63-1.26,1.26-2.53,1.88-3.79a3.63,3.63,0,0,0,.49-1.51,1.09,1.09,0,0,0-1.91-.89,3.55,3.55,0,0,0-.66,1c-.49,1-1,1.91-1.42,2.88a16.51,16.51,0,0,1-1.52-3.63,5.8,5.8,0,0,1-.25-2.54c.28-1.7,1.72-3,2.57-4.45a2.75,2.75,0,0,0,.44-1.54,1.25,1.25,0,0,0-1-1.16c-.74-.1-1.29.65-1.66,1.3l-2,3.54a.79.79,0,0,1-1.36.27l-3.28-2a2.52,2.52,0,0,0-1.78-.53,1.19,1.19,0,0,0-.79,1.32A2.28,2.28,0,0,0,126,27.31c.84.51,1.7,1,2.58,1.44a6.05,6.05,0,0,1,2.21,1.53,5.43,5.43,0,0,1,.79,1.77c.42,1.36.84,2.72,1.27,4.08l-2.81-1.27a2.29,2.29,0,0,0-1.34-.31,1.23,1.23,0,0,0-.73,1.87,2.58,2.58,0,0,0,1.25.7,18.31,18.31,0,0,1,5.92,3.4c2.08,1.77,3.82,4.06,6.33,5.12"/><path d="M169.28,26a2.5,2.5,0,0,0-1.74.66l-3.12,2.21a1.07,1.07,0,0,1-.91.28,1.11,1.11,0,0,1-.46-.45l-2.28-3.37c-.42-.63-1-1.33-1.76-1.17a1.25,1.25,0,0,0-.88,1.22,2.64,2.64,0,0,0,.56,1.51c1,1.43,2.49,2.56,2.9,4.24a5.78,5.78,0,0,1-.06,2.55,16.4,16.4,0,0,1-1.23,3.74c-.54-.93-1.08-1.85-1.64-2.77a3.58,3.58,0,0,0-.74-.94,1.21,1.21,0,0,0-1.13-.27,1.23,1.23,0,0,0-.7,1.3,3.69,3.69,0,0,0,.6,1.47l2.16,3.64a1.16,1.16,0,0,1,.21.5,1.24,1.24,0,0,1-.27.73,22.06,22.06,0,0,1-2.5,3.12A8.16,8.16,0,0,0,155,45.75a1.55,1.55,0,0,0-.12.22,2,2,0,0,0,.18,2.16c2.42-1.25,4-3.66,5.92-5.59a18.27,18.27,0,0,1,5.64-3.84,2.5,2.5,0,0,0,1.2-.8,1.24,1.24,0,0,0-.87-1.81,2.44,2.44,0,0,0-1.32.41L162.91,38c.32-1.39.64-2.78,1-4.17a5.74,5.74,0,0,1,.65-1.82,6.1,6.1,0,0,1,2.09-1.7c.84-.51,1.66-1.05,2.46-1.63a2.28,2.28,0,0,0,1.1-1.44,1.18,1.18,0,0,0-.88-1.25"/><path d="M150,82.07c0,2.22-.9,4-2,4s-2-1.81-2-4,.9-4,2-4,2,1.8,2,4"/><rect x="210.49" y="40.51" width="6.81" height="19.73"/><path d="M193.27,77.52h23.89V62.2H193.27Zm6.51-9.83h10.87v4.38H199.78Z"/><rect x="248.15" y="40.53" width="6.59" height="36.99"/><rect x="227.39" y="40.53" width="12.68" height="5.47"/><path d="M245.49,64.7c-.94-.39-1.88-.84-2.81-1.32-.42-.23-.84-.48-1.26-.76a11.44,11.44,0,0,1-2.59-2.53,9.6,9.6,0,0,1-1.41-3,8.08,8.08,0,0,1-.31-2.64h8.7V48H221.87v6.52h8.48a8.08,8.08,0,0,1-.31,2.64,9.4,9.4,0,0,1-1.42,3A11.2,11.2,0,0,1,226,62.62c-.42.28-.85.54-1.26.76l-.72.38a17.34,17.34,0,0,1-1.88.94c-.16.07-.34.13-.51.19l-.61.22,2.85,6.36.38-.14a20.44,20.44,0,0,0,4.42-2.17,18.67,18.67,0,0,0,5.08-3.94A20.92,20.92,0,0,0,239,69.15a21.09,21.09,0,0,0,4.44,2.18l.38.14,2.85-6.36-.62-.22-.51-.19"/><path d="M206.53,41.36v-.85l-19.43.05,0,5.82,12,0h.18l0,.17c-1.5,5.2-5.23,8.29-11.8,9.74l-1.16.25,2.2,5.65.8-.18c11-2.26,17.23-9.77,17.2-20.62"/></g></g></svg>