<?xml version="1.0" encoding="utf-8"?>
<!-- Generator: Adobe Illustrator 24.1.2, SVG Export Plug-In . SVG Version: 6.00 Build 0)  -->
<svg version="1.1" id="레이어_1" xmlns="http://www.w3.org/2000/svg" xmlns:xlink="http://www.w3.org/1999/xlink" x="0px"
	 y="0px" viewBox="0 0 66.1 55" style="enable-background:new 0 0 66.1 55;" xml:space="preserve">
<style type="text/css">
	.st0{fill:#333333;}
	.st1{enable-background:new    ;}
	.st2{fill:none;}
</style>
<g id="레이어_2_1_">
	<g id="kimAca">
		<path class="st0" d="M39.4,24.8c0.4-0.4,0.4-0.9,0-1.3c0,0,0,0,0,0c-1.2-1.1-2.6-2-4.1-2.5c3.3-1.8,4.6-6,2.7-9.4S32,7.2,28.7,9
			s-4.6,6-2.7,9.4c0.6,1.2,1.6,2.1,2.7,2.7c-4.2,1.3-7.1,5.1-7.4,9.5l0,0v3.6c0.1,0.5,0.5,0.9,1,0.8c0.4,0,0.8-0.4,0.8-0.8v-1.7l0,0
			v-0.9v-0.1c0-4.9,4-8.9,8.9-8.9c2.3,0,4.5,0.9,6.1,2.5C38.5,25.2,39.1,25.2,39.4,24.8z M26.9,15c0-2.8,2.2-5,5-5s5,2.2,5,5
			s-2.2,5-5,5S26.9,17.8,26.9,15z"/>
		<path class="st0" d="M48.1,29.1h-3.5v-3.3c0-0.5-0.4-0.9-0.9-0.9s-0.9,0.4-0.9,0.9l0,0v3.3h-3.3c-0.5,0-0.9,0.4-0.9,0.9
			S39,31,39.5,31h3.3v3.3c0,0.5,0.4,0.9,0.9,0.9s0.9-0.4,0.9-0.9V31h3.5c0.5,0,0.9-0.4,0.9-0.9S48.7,29.1,48.1,29.1L48.1,29.1
			L48.1,29.1z"/>
		<g class="st1">
			<path class="st0" d="M20.3,47.1c0,0.9-0.3,1.6-0.9,2.1c-0.6,0.5-1.4,0.8-2.5,0.8c-0.9,0-1.7-0.2-2.3-0.7s-0.9-1.2-0.9-2.1H16
				c0,0.4,0.1,0.7,0.3,0.8c0.2,0.2,0.4,0.3,0.7,0.3c0.3,0,0.6-0.1,0.8-0.3c0.2-0.2,0.3-0.5,0.3-0.8c0-0.4-0.1-0.6-0.2-0.8
				c-0.2-0.2-0.3-0.3-0.6-0.4l-1-0.2c-0.8-0.2-1.4-0.5-1.8-1c-0.4-0.5-0.7-1-0.7-1.7c0-0.8,0.3-1.5,0.9-2.1c0.6-0.6,1.4-0.8,2.4-0.8
				c0.8,0,1.5,0.2,2.1,0.7c0.6,0.5,0.9,1.1,1,1.9h-2.2c-0.1-0.3-0.2-0.5-0.4-0.7c-0.2-0.1-0.4-0.2-0.6-0.2c-0.3,0-0.6,0.1-0.7,0.3
				s-0.3,0.5-0.3,0.8c0,0.3,0.1,0.5,0.2,0.7s0.4,0.3,0.6,0.4l1,0.2c0.8,0.2,1.4,0.5,1.9,0.9C20.1,45.6,20.3,46.2,20.3,47.1z"/>
			<path class="st0" d="M21.3,40.3h2.2v8.8c0,0.2-0.1,0.4-0.3,0.6c-0.2,0.1-0.4,0.2-0.6,0.2h-1.4V40.3z"/>
			<path class="st0" d="M27.9,44.5h3.8V46c0,1.4-0.3,2.4-0.9,3c-0.6,0.6-1.5,0.9-2.7,0.9c-0.9,0-1.6-0.3-2.2-0.8
				c-0.6-0.5-1-1.2-1.1-2.2c-0.1-0.5-0.1-1.2-0.2-1.9s0-1.4,0.1-2c0.2-0.9,0.6-1.7,1.2-2.2c0.6-0.5,1.4-0.8,2.2-0.8
				c0.9,0,1.7,0.3,2.4,0.9c0.7,0.6,1,1.3,1.1,2.2h-2.2c-0.1-0.4-0.2-0.8-0.5-1c-0.2-0.2-0.5-0.4-0.8-0.4c-0.3,0-0.5,0.1-0.8,0.4
				c-0.2,0.3-0.4,0.7-0.5,1.3c0,0.4,0,0.9,0,1.5c0,0.6,0,1.1,0.1,1.4c0.1,0.5,0.2,0.9,0.4,1.3c0.2,0.3,0.5,0.5,0.8,0.5
				c0.4,0,0.7-0.1,1-0.4c0.2-0.3,0.3-0.7,0.3-1.3v-0.4h-0.9c-0.2,0-0.4,0-0.5-0.1c-0.1-0.1-0.2-0.2-0.2-0.5V44.5z"/>
			<path class="st0" d="M38,49.8l-2.8-5c0,0,0-0.1-0.1-0.3s-0.1-0.2-0.1-0.3c0,0.1,0,0.2,0,0.3c0,0.2,0,0.2,0,0.3v4.1
				c0,0.2-0.1,0.4-0.3,0.6c-0.2,0.1-0.4,0.2-0.6,0.2h-1.4v-9.5h2l2.7,4.9c0,0,0.1,0.1,0.1,0.3c0,0.1,0.1,0.2,0.1,0.3
				c0-0.1,0-0.2,0-0.3s0-0.2,0-0.3v-4.8h2.2v8.8c0,0.2-0.1,0.4-0.3,0.6c-0.2,0.1-0.4,0.2-0.6,0.2H38z"/>
			<path class="st0" d="M44.3,40.3h2.2v8.8c0,0.2-0.1,0.4-0.3,0.6c-0.2,0.1-0.4,0.2-0.6,0.2h-1.4V40.3z"/>
			<path class="st0" d="M53.2,49.8l-2.8-5c0,0,0-0.1-0.1-0.3s-0.1-0.2-0.1-0.3c0,0.1,0,0.2,0,0.3c0,0.2,0,0.2,0,0.3v4.1
				c0,0.2-0.1,0.4-0.3,0.6c-0.2,0.1-0.4,0.2-0.6,0.2H48v-9.5h2l2.7,4.9c0,0,0.1,0.1,0.1,0.3c0,0.1,0.1,0.2,0.1,0.3
				c0-0.1,0-0.2,0-0.3s0-0.2,0-0.3v-4.8h2.2v8.8c0,0.2-0.1,0.4-0.3,0.6c-0.2,0.1-0.4,0.2-0.6,0.2H53.2z"/>
		</g>
		<rect class="st2" width="66.1" height="55"/>
	</g>
</g>
</svg>
